<?xml version="1.0" standalone="no"?>
<!DOCTYPE svg PUBLIC "-//W3C//DTD SVG 20010904//EN"
 "http://www.w3.org/TR/2001/REC-SVG-20010904/DTD/svg10.dtd">
<svg version="1.0" xmlns="http://www.w3.org/2000/svg"
 width="401.000000pt" height="401.000000pt" viewBox="0 0 401.000000 401.000000"
 preserveAspectRatio="xMidYMid meet">
<metadata>
Created by potrace 1.14, written by Peter Selinger 2001-2017
</metadata>
<g transform="translate(0.000000,401.000000) scale(0.100000,-0.100000)"
fill="#000000" stroke="none">
<path d="M2272 3872 c-22 -3 -22 -4 11 -37 19 -19 40 -35 48 -37 8 -2 16 -6
19 -10 3 -4 25 -10 48 -14 37 -6 42 -4 36 10 -3 9 -10 16 -15 16 -5 0 -9 6 -9
13 0 25 -96 66 -138 59z"/>
<path d="M1680 3863 c-8 -3 -24 -13 -34 -22 -16 -13 -18 -13 -11 -1 4 8 -4 4
-18 -9 -15 -13 -24 -28 -21 -32 3 -5 0 -9 -5 -9 -6 0 -11 -4 -11 -10 0 -5 12
-8 28 -6 38 4 92 26 92 37 0 5 3 8 8 7 11 -4 52 35 46 44 -6 9 -51 10 -74 1z"/>
<path d="M2504 3843 c2 -8 11 -22 22 -30 10 -8 18 -16 17 -18 -6 -11 -2 -26 6
-21 4 3 13 -6 19 -19 7 -14 16 -25 22 -25 6 0 9 -4 6 -9 -3 -5 1 -11 8 -14 8
-3 20 -15 25 -26 10 -18 8 -19 -11 -15 -13 3 -30 7 -38 8 -9 1 -20 4 -25 7
-10 4 -71 4 -125 0 -22 -2 -21 -4 15 -20 38 -18 160 -26 192 -14 15 6 18 49 3
58 -6 4 -8 11 -5 16 4 5 1 9 -6 9 -7 0 -9 3 -6 6 11 11 -32 62 -78 94 -33 22
-43 26 -41 13z"/>
<path d="M1442 3802 c-28 -27 -56 -61 -61 -75 -13 -35 -22 -81 -14 -73 3 3 12
1 18 -4 16 -13 150 -13 150 0 0 1 10 3 23 4 12 2 28 8 34 14 12 12 13 12 -77
16 -16 1 -50 -4 -74 -11 -24 -7 -48 -13 -54 -13 -12 0 21 52 40 63 7 5 11 12
8 18 -4 5 2 9 11 9 10 0 15 3 11 6 -3 3 3 16 14 28 63 66 38 81 -29 18z"/>
<path d="M1247 3721 c-55 -61 -66 -87 -71 -168 -3 -36 0 -44 18 -49 42 -14
143 -4 200 20 38 16 44 22 24 24 -7 1 -27 3 -45 5 -18 3 -51 0 -75 -5 -24 -5
-49 -9 -55 -10 -7 -1 -13 -4 -13 -8 0 -3 -9 -6 -20 -7 -23 -2 -26 7 -8 25 7 7
8 12 2 12 -5 0 -5 3 1 8 23 16 96 192 81 192 -2 0 -20 -18 -39 -39z"/>
<path d="M2735 3738 c1 -13 4 -24 5 -25 1 -2 4 -7 5 -13 1 -5 4 -12 5 -15 1
-3 3 -8 4 -12 6 -20 32 -69 41 -75 5 -4 6 -8 2 -8 -5 0 1 -14 13 -31 12 -16
20 -32 18 -34 -2 -3 -20 0 -39 6 -75 23 -151 30 -184 19 -19 -7 -19 -7 1 -18
12 -6 24 -8 28 -5 3 3 6 1 6 -5 0 -7 3 -11 8 -11 4 1 27 -2 52 -7 54 -10 56
-10 103 -1 41 9 46 21 33 88 -10 55 -19 79 -27 73 -5 -3 -9 2 -9 10 0 9 -15
32 -34 52 -30 32 -33 33 -31 12z"/>
<path d="M1045 3587 c-11 -18 -19 -35 -17 -39 1 -5 -2 -8 -8 -8 -5 0 -13 -24
-17 -52 -9 -65 -9 -64 0 -110 9 -44 29 -53 98 -44 81 10 169 39 169 55 0 15
-132 15 -147 1 -2 -1 -6 -3 -10 -4 -27 -6 -53 -18 -53 -25 0 -4 -8 -7 -18 -8
-10 -1 -19 5 -19 13 0 8 5 14 10 14 5 0 7 7 4 15 -4 8 -2 17 2 20 8 4 18 43
27 105 16 101 10 119 -21 67z"/>
<path d="M2945 3573 c7 -74 13 -104 29 -158 9 -27 16 -53 16 -57 0 -10 -26 -4
-44 11 -9 7 -16 10 -16 6 0 -4 -6 -3 -12 3 -12 9 -44 17 -103 26 -11 2 -33 -2
-49 -7 l-30 -10 25 -10 c13 -6 26 -11 29 -12 3 -1 19 -7 35 -14 17 -8 60 -15
96 -17 62 -3 66 -1 82 25 21 35 16 142 -8 181 -5 8 -10 20 -11 26 -1 7 -11 21
-23 33 l-21 21 5 -47z"/>
<path d="M862 3413 c-50 -125 -17 -273 59 -273 39 0 122 21 130 32 3 6 10 9
15 9 18 -1 44 11 44 20 0 6 4 8 9 4 5 -3 13 0 17 6 10 16 -14 27 -50 23 -45
-6 -136 -37 -136 -46 0 -4 -7 -8 -15 -8 -8 0 -15 -4 -15 -10 0 -5 -7 -10 -15
-10 -11 0 -14 7 -10 28 13 69 0 252 -19 252 -2 0 -8 -12 -14 -27z"/>
<path d="M3134 3425 c3 -8 1 -15 -4 -15 -5 0 -7 -9 -5 -20 2 -11 1 -22 -3 -24
-7 -4 -6 -125 1 -161 2 -11 0 -28 -5 -38 -8 -16 -11 -17 -21 -4 -14 18 -113
74 -103 59 3 -5 -12 -3 -34 4 -30 10 -46 11 -67 3 l-28 -11 55 -28 c30 -15 58
-26 63 -23 4 2 7 0 7 -6 0 -5 8 -10 18 -10 9 0 41 -2 70 -5 30 -2 50 0 46 5
-3 5 2 9 11 9 9 0 14 4 11 9 -4 5 -2 11 4 13 5 1 11 12 13 23 1 11 5 25 9 30
11 18 2 130 -15 168 -15 35 -36 55 -23 22z"/>
<path d="M3294 3223 c4 -7 3 -13 -2 -13 -14 0 -47 -107 -58 -190 -4 -25 -8
-52 -10 -60 -1 -8 -3 -17 -3 -19 -1 -3 -17 10 -36 29 -19 19 -35 30 -35 24 0
-5 -4 -4 -8 2 -13 21 -70 44 -124 50 l-53 6 29 -31 c32 -33 41 -39 31 -18 -4
6 -1 5 7 -3 13 -15 81 -56 86 -52 1 1 3 2 5 1 57 -17 96 -18 112 -3 8 8 15 12
15 7 0 -12 40 56 44 75 1 9 7 26 12 37 12 29 8 145 -7 159 -9 8 -10 8 -5 -1z"/>
<path d="M707 3206 c-10 -25 1 -156 13 -171 7 -8 9 -15 6 -15 -4 0 7 -20 24
-45 17 -25 34 -45 37 -45 9 0 -4 136 -16 158 -6 11 -8 22 -5 25 7 7 -36 107
-46 107 -4 0 -10 -6 -13 -14z"/>
<path d="M959 3042 c-59 -18 -117 -56 -149 -96 -14 -18 -13 -19 20 -14 19 4
49 11 65 18 17 6 30 10 30 8 0 -1 15 7 33 20 17 13 32 21 32 18 0 -3 11 4 25
16 14 12 25 25 25 30 0 9 -53 8 -81 0z"/>
<path d="M595 2938 c7 -64 9 -69 34 -121 24 -50 66 -99 75 -89 3 3 6 0 6 -6 0
-7 5 -12 11 -12 7 0 9 10 5 28 -4 15 -7 33 -8 40 -1 6 -4 12 -8 12 -3 0 -6 10
-7 22 -1 11 -7 24 -13 28 -7 4 -12 10 -12 13 0 19 -12 47 -20 47 -5 0 -7 4 -4
9 5 8 -45 71 -57 71 -4 0 -5 -19 -2 -42z"/>
<path d="M3400 2970 c-8 -5 -11 -10 -6 -10 6 0 1 -7 -10 -15 -10 -8 -15 -15
-11 -15 4 0 -1 -10 -12 -22 -11 -11 -18 -25 -15 -30 3 -4 0 -8 -5 -8 -6 0 -10
-3 -9 -7 1 -5 -3 -18 -10 -29 -6 -12 -8 -24 -5 -28 3 -3 1 -6 -6 -6 -7 0 -11
-6 -8 -14 3 -7 2 -17 -2 -22 -5 -5 -11 -22 -15 -39 -5 -22 -4 -26 4 -15 5 8
10 12 10 8 0 -4 15 7 34 25 32 30 84 117 70 117 -4 0 -2 6 3 13 6 6 10 19 11
27 0 8 2 30 5 48 5 34 1 38 -23 22z"/>
<path d="M1221 2942 c-6 -2 -11 -8 -11 -13 0 -6 5 -7 10 -4 6 3 10 2 10 -2 0
-10 55 -44 61 -39 2 3 4 -169 4 -381 l0 -385 -45 -39 c-25 -21 -40 -39 -35
-40 6 -1 184 -3 398 -4 320 -2 387 0 387 12 0 7 4 21 9 31 6 9 19 43 30 75 17
48 18 57 6 57 -8 0 -15 -5 -15 -11 0 -5 -5 -7 -10 -4 -6 3 -13 -1 -16 -9 -3
-9 -10 -14 -14 -11 -4 3 -13 -2 -20 -10 -7 -8 -18 -15 -26 -15 -7 0 -17 -7
-22 -16 -5 -9 -12 -15 -15 -15 -4 1 -8 0 -9 0 -2 -1 -114 -2 -249 -3 l-247 -1
1 387 c0 213 3 386 6 385 12 -3 71 38 68 48 -3 9 -230 16 -256 7z"/>
<path d="M1695 2938 c-64 -13 -93 -26 -127 -57 -20 -19 -45 -79 -43 -101 1 -8
3 -25 3 -37 1 -12 9 -29 18 -37 8 -9 12 -16 7 -16 -4 0 12 -13 36 -29 25 -17
48 -28 53 -25 4 3 8 1 8 -4 0 -5 10 -12 23 -15 12 -3 49 -13 82 -22 33 -10 65
-18 70 -20 6 -1 23 -7 38 -13 16 -7 31 -12 34 -12 3 0 16 -11 29 -26 48 -51
17 -125 -60 -139 -61 -12 -185 3 -212 26 -8 6 -14 8 -14 5 0 -9 -22 9 -78 62
-24 23 -46 42 -48 42 -2 0 -1 -26 2 -57 3 -32 7 -69 8 -82 2 -21 10 -26 54
-36 28 -7 54 -10 57 -7 3 3 5 0 5 -6 0 -7 3 -11 8 -10 4 1 32 -4 63 -11 49
-12 163 -11 209 1 42 11 60 20 60 29 0 6 4 8 9 5 4 -3 19 6 32 21 13 14 17 23
9 19 -9 -5 -8 -2 2 7 20 16 35 97 23 124 -5 10 -9 22 -9 26 -1 5 -10 15 -20
23 -11 8 -16 14 -10 14 5 0 -18 16 -51 35 -32 19 -61 32 -64 30 -2 -3 -10 0
-17 5 -6 6 -16 10 -20 9 -5 -1 -16 0 -24 4 -22 8 -89 29 -103 31 -21 4 -73 34
-86 50 -9 10 -11 28 -7 50 5 28 14 37 52 53 69 30 186 18 238 -26 16 -13 18
-13 11 -1 -4 8 8 -3 28 -25 20 -22 36 -45 37 -51 0 -7 6 -14 14 -17 11 -5 13
6 9 56 -3 34 -6 71 -7 81 0 12 -12 23 -31 28 -16 5 -39 13 -50 18 -11 5 -33
12 -50 16 -16 4 -37 9 -45 11 -33 8 -117 9 -155 1z"/>
<path d="M2084 2939 c-4 -7 15 -24 64 -58 19 -13 20 -26 20 -387 1 -354 0
-373 -19 -395 -10 -12 -19 -18 -19 -14 0 5 -9 -1 -20 -13 -11 -12 -20 -25 -20
-30 0 -14 436 -8 503 8 31 7 57 16 57 20 0 4 13 13 29 20 32 13 83 65 74 74
-4 3 -1 6 6 6 7 0 10 4 7 9 -4 5 -1 11 4 13 6 2 12 10 13 18 2 8 6 21 10 28 5
6 6 16 2 21 -3 5 -1 12 4 16 6 3 8 11 6 18 -2 7 -6 33 -9 58 -5 53 -28 103
-53 118 -10 6 -14 11 -8 11 5 0 -2 8 -15 17 -14 10 -26 16 -28 15 -1 -1 -12 7
-24 18 -21 20 -21 20 -2 35 10 8 23 15 27 15 5 0 5 5 2 10 -3 6 0 10 8 10 13
0 23 13 32 40 1 3 6 14 11 25 13 31 11 148 -4 153 -7 2 -10 8 -6 13 3 5 0 9
-6 9 -6 0 -9 4 -6 9 3 4 -5 18 -17 29 -23 22 -97 57 -97 46 0 -4 -6 -2 -12 3
-17 13 -8 13 -276 16 -128 2 -235 0 -238 -4z m497 -90 c67 -35 89 -118 53
-195 -30 -63 -91 -78 -290 -75 l-72 1 1 138 c0 75 4 140 9 143 17 11 275 1
299 -12z m-30 -354 c81 -17 137 -78 144 -158 10 -106 -52 -190 -158 -213 -33
-7 -245 -11 -255 -5 -12 8 -12 374 0 382 11 7 226 3 269 -6z"/>
<path d="M875 2831 c-31 -14 -54 -29 -51 -31 3 -3 -8 -14 -24 -25 -15 -10 -35
-31 -44 -47 -18 -30 -17 -30 32 -11 9 3 19 7 22 8 37 9 186 121 169 126 -25 8
-56 2 -104 -20z"/>
<path d="M3047 2839 c3 -11 8 -18 10 -15 3 3 15 -5 27 -17 31 -33 126 -93 126
-80 0 3 6 1 13 -4 19 -16 47 -23 47 -13 0 27 -123 136 -141 124 -5 -3 -9 -1
-9 4 0 5 -6 9 -12 10 -7 1 -25 3 -39 6 -22 3 -26 1 -22 -15z"/>
<path d="M525 2703 c4 -10 7 -25 8 -33 0 -8 7 -24 16 -34 13 -16 13 -18 1 -12
-9 5 -8 2 2 -7 10 -8 16 -16 13 -19 -8 -8 78 -95 112 -112 39 -20 49 -20 34
-3 -6 8 -8 17 -4 20 3 4 2 7 -4 7 -5 0 -10 6 -10 13 0 17 -33 67 -44 67 -5 0
-8 3 -7 8 5 13 -54 82 -70 82 -8 0 -12 3 -9 7 7 6 -22 32 -37 33 -4 0 -5 -8
-1 -17z"/>
<path d="M3432 2672 c-54 -54 -98 -112 -85 -112 4 0 3 -4 -3 -8 -18 -12 -45
-70 -35 -77 5 -3 12 -1 16 5 4 6 10 8 15 5 4 -3 11 2 14 11 3 8 9 13 13 11 5
-2 19 7 33 21 14 13 18 21 10 17 -8 -5 -3 3 12 17 14 14 33 38 41 54 17 33 33
104 23 104 -3 0 -28 -22 -54 -48z"/>
<path d="M918 2656 c-16 -8 -28 -13 -28 -10 0 9 -55 -30 -92 -64 -20 -20 -35
-39 -32 -44 3 -4 1 -8 -4 -8 -10 0 -35 -50 -28 -57 5 -5 58 27 68 42 4 5 8 7
8 3 0 -18 92 73 123 123 22 33 21 34 -15 15z"/>
<path d="M3070 2655 c0 -3 12 -18 28 -32 15 -15 20 -23 12 -18 -8 5 10 -15 40
-44 51 -48 95 -76 113 -73 4 1 7 -2 7 -8 0 -5 5 -10 10 -10 15 0 12 16 -6 34
-8 9 -12 16 -8 16 4 0 -1 7 -12 16 -10 8 -12 12 -4 8 22 -11 -50 59 -87 85
-18 12 -33 19 -33 15 0 -5 -5 -3 -12 4 -12 12 -48 17 -48 7z"/>
<path d="M930 2460 c0 -5 -3 -9 -7 -8 -25 8 -127 -86 -135 -124 -2 -7 -6 -15
-10 -18 -4 -3 -9 -17 -11 -30 -6 -39 -20 -34 -72 26 -61 69 -219 181 -189 133
4 -8 9 -20 11 -28 1 -8 7 -17 13 -21 7 -4 12 -11 11 -16 0 -15 32 -53 41 -48
4 3 8 -2 8 -10 0 -9 4 -16 8 -16 5 0 19 -9 32 -20 12 -11 26 -17 30 -15 5 3
10 0 12 -5 2 -6 16 -13 32 -16 16 -3 33 -7 36 -9 10 -6 80 44 80 57 0 6 3 8 6
5 6 -6 43 34 47 50 1 4 12 18 26 31 13 12 20 22 16 22 -4 0 -1 8 7 18 20 23
30 52 18 52 -6 0 -10 -4 -10 -10z"/>
<path d="M3077 2450 c3 -11 9 -20 14 -20 5 0 8 -3 7 -7 -4 -13 48 -94 55 -86
4 3 7 1 7 -6 0 -15 66 -81 74 -74 3 4 6 1 6 -5 0 -7 5 -12 10 -12 6 0 10 5 10
12 0 17 -62 138 -69 134 -3 -1 -14 5 -23 16 -10 10 -15 18 -10 18 4 1 -6 8
-23 17 -16 10 -33 16 -37 15 -5 -1 -8 3 -8 8 0 6 -4 10 -9 10 -5 0 -7 -9 -4
-20z"/>
<path d="M3461 2424 c-25 -13 -55 -36 -68 -50 -13 -14 -23 -23 -23 -19 0 3
-17 -14 -37 -37 -21 -24 -41 -45 -46 -46 -4 -2 -5 -8 -1 -13 3 -5 0 -9 -6 -9
-6 0 -8 -5 -5 -10 5 -8 11 -7 21 1 8 6 14 9 14 5 0 -16 100 46 133 83 39 43
70 97 65 111 -2 5 -23 -2 -47 -16z"/>
<path d="M3040 2265 c0 -20 32 -99 43 -106 5 -3 8 -10 6 -14 -2 -7 17 -38 39
-61 6 -7 12 -16 12 -21 0 -4 12 -19 25 -32 22 -21 32 -23 80 -17 54 6 125 35
153 62 7 8 18 14 24 14 6 0 9 2 6 5 -3 3 8 20 23 36 34 36 38 54 9 39 -11 -6
-20 -8 -20 -5 0 3 -10 0 -22 -7 -13 -6 -30 -13 -38 -14 -8 -2 -16 -8 -18 -14
-2 -5 -7 -8 -12 -5 -5 3 -15 -1 -22 -9 -8 -7 -24 -17 -36 -20 -12 -4 -20 -12
-17 -17 4 -5 -1 -9 -9 -9 -8 0 -20 -8 -25 -17 -6 -10 -11 -14 -11 -9 0 6 -6 1
-14 -10 -17 -23 -25 -17 -30 22 -13 89 -45 141 -125 206 -17 15 -21 15 -21 3z"/>
<path d="M911 2223 c-23 -27 -42 -52 -41 -57 1 -5 -2 -12 -7 -15 -17 -12 -33
-63 -33 -102 l0 -41 -46 41 c-26 23 -53 41 -60 41 -8 0 -14 4 -14 8 0 9 -71
47 -82 44 -5 -1 -8 3 -8 9 0 6 -7 9 -15 5 -8 -3 -15 -2 -15 3 0 4 -6 8 -12 8
-7 0 -21 4 -31 8 -13 6 -16 3 -11 -9 3 -9 11 -16 17 -16 6 0 7 -3 4 -7 -10
-10 70 -80 118 -103 24 -12 65 -23 92 -27 26 -3 50 -6 53 -7 18 -4 125 145
113 157 -3 4 -2 7 4 7 6 0 13 8 16 18 3 9 10 32 15 50 15 47 -5 42 -57 -15z"/>
<path d="M1013 2068 c-30 -32 -75 -117 -68 -129 4 -5 3 -9 -2 -9 -11 0 -16
-107 -5 -114 23 -14 107 195 100 250 l-3 26 -22 -24z"/>
<path d="M2976 2068 c2 -13 7 -39 10 -58 9 -50 50 -150 77 -183 18 -23 32 -29
71 -32 55 -3 107 8 149 31 15 8 27 12 27 8 0 -4 9 3 20 16 11 13 20 19 20 15
0 -4 9 0 20 10 33 30 26 44 -17 35 -20 -5 -41 -7 -45 -4 -4 3 -8 0 -8 -6 0 -6
-4 -8 -10 -5 -5 3 -16 3 -22 -2 -7 -4 -22 -9 -33 -10 -10 -2 -23 -9 -27 -16
-4 -6 -8 -9 -8 -4 0 4 -24 -5 -52 -20 -29 -15 -56 -29 -59 -31 -3 -1 -6 25 -6
58 0 33 -5 66 -12 73 -6 8 -8 16 -5 19 8 9 -55 107 -76 118 -16 9 -18 7 -14
-12z"/>
<path d="M631 1899 c12 -23 94 -80 103 -72 3 4 6 1 6 -5 0 -7 3 -11 8 -11 4 1
9 0 12 -1 32 -12 144 -20 159 -10 14 8 -88 70 -120 73 -10 1 -19 5 -19 9 0 4
-3 7 -7 7 -5 -1 -10 0 -13 1 -11 4 -37 9 -87 18 -48 8 -51 8 -42 -9z"/>
<path d="M1124 1911 c3 -5 -1 -12 -10 -15 -8 -3 -12 -10 -9 -16 3 -5 2 -10 -2
-10 -25 0 -55 -181 -33 -195 5 -3 7 -12 4 -19 -3 -8 -1 -17 5 -20 11 -7 36 44
46 96 14 72 17 188 5 188 -6 0 -9 -4 -6 -9z"/>
<path d="M2879 1905 c-4 -60 2 -129 17 -190 11 -47 44 -106 54 -100 6 4 10 2
10 -2 0 -11 28 -15 100 -15 70 0 100 4 100 14 0 4 3 7 8 6 13 -3 56 14 79 32
20 16 21 18 5 22 -9 2 -48 3 -87 1 -97 -5 -105 -6 -105 -16 0 -4 -4 -6 -8 -3
-5 3 -33 -4 -62 -15 l-52 -20 8 38 c17 83 -3 188 -46 243 -18 23 -20 24 -21 5z"/>
<path d="M1232 1723 c-15 -36 -19 -63 -17 -113 5 -80 7 -90 15 -90 4 0 7 -6 7
-12 0 -7 4 -22 9 -32 6 -16 4 -18 -12 -12 -60 23 -247 26 -270 4 -3 -4 -12 -4
-19 -2 -7 3 -16 0 -21 -7 -4 -8 -3 -10 4 -5 7 4 12 2 12 -3 0 -6 8 -11 18 -11
10 0 22 -3 26 -7 23 -24 171 -21 228 4 42 19 47 26 55 65 13 60 4 250 -11 266
-2 1 -12 -19 -24 -45z"/>
<path d="M2763 1763 c4 -3 2 -12 -4 -20 -7 -8 -12 -56 -12 -121 -1 -119 3
-163 15 -156 5 3 6 10 3 15 -4 5 -2 9 3 9 27 0 45 127 28 202 -9 41 -25 78
-32 78 -4 0 -4 -3 -1 -7z"/>
<path d="M767 1673 c-16 -4 -13 -8 14 -29 17 -13 36 -21 40 -18 5 3 9 0 9 -6
0 -7 6 -10 14 -7 7 3 19 0 25 -6 15 -15 165 -14 183 1 8 6 18 10 22 7 3 -3 3
-1 -1 4 -7 7 -63 29 -98 37 -5 2 -21 6 -35 9 -33 8 -150 13 -173 8z"/>
<path d="M1384 1600 c-21 -65 -4 -172 38 -232 26 -38 35 -35 32 10 -1 20 -3
37 -4 37 -1 0 -3 11 -5 25 -1 14 -6 36 -9 50 -4 14 -9 32 -11 40 -2 8 -4 15
-5 15 -1 0 -3 7 -5 15 -2 8 -7 26 -13 40 l-9 25 -9 -25z"/>
<path d="M2619 1609 c-1 -8 -1 -17 0 -21 0 -5 -4 -8 -9 -8 -6 0 -10 -6 -8 -12
1 -7 -4 -24 -11 -36 -7 -13 -10 -26 -7 -29 3 -3 1 -13 -4 -23 -14 -27 -24
-140 -11 -140 5 0 24 28 41 63 30 62 39 121 27 181 -7 33 -16 46 -18 25z"/>
<path d="M2856 1483 c-2 -2 -19 -6 -37 -8 -37 -5 -60 -22 -38 -29 8 -2 23 -7
34 -12 36 -13 49 -15 105 -14 64 1 91 4 105 12 6 3 23 8 39 12 24 6 29 21 8
21 -4 0 -13 4 -20 9 -14 8 -188 16 -196 9z"/>
<path d="M1546 1438 c3 -24 6 -49 6 -55 1 -7 5 -13 10 -13 5 0 7 -4 3 -9 -3
-5 1 -16 9 -24 8 -8 13 -17 10 -20 -3 -2 6 -14 20 -25 15 -11 26 -25 26 -31 0
-6 5 -11 10 -11 6 0 10 -3 10 -7 0 -5 -24 -8 -52 -9 -76 0 -114 -9 -188 -42
-30 -13 -32 -16 -15 -22 11 -4 35 -5 55 -3 63 8 85 11 85 13 0 1 14 4 30 6 17
3 31 9 33 14 2 5 9 7 15 4 7 -2 23 5 35 16 18 17 20 25 11 47 -5 14 -13 31
-17 37 -4 6 -7 13 -8 16 -11 37 -18 50 -25 50 -5 0 -8 3 -7 8 3 10 -39 89 -51
97 -7 3 -8 -11 -5 -37z"/>
<path d="M2459 1473 c-1 -4 -1 -11 0 -15 0 -5 -4 -8 -10 -8 -5 0 -7 -4 -4 -10
3 -5 3 -10 -2 -10 -9 0 -54 -84 -79 -149 -17 -43 -17 -44 7 -61 20 -16 44 -25
94 -36 6 -1 12 -3 15 -4 48 -18 167 -14 148 5 -18 19 -132 48 -190 49 -38 0
-68 3 -68 5 0 2 14 19 31 39 52 59 94 182 68 198 -5 3 -10 2 -10 -3z"/>
<path d="M1720 1346 c0 -29 89 -159 90 -131 0 6 5 2 11 -8 6 -9 14 -15 20 -12
5 4 9 0 9 -8 0 -10 -18 -16 -61 -21 -33 -3 -66 -9 -72 -13 -7 -4 -14 -8 -17
-8 -25 -4 -50 -19 -50 -31 0 -8 4 -13 8 -10 5 3 22 8 38 10 59 11 78 16 130
31 29 8 55 19 58 23 6 9 -61 82 -68 74 -3 -3 -6 0 -6 6 0 7 -20 33 -45 59 -25
25 -45 43 -45 39z"/>
<path d="M2280 1343 c0 -5 -27 -36 -60 -70 -33 -35 -56 -63 -52 -63 4 -1 -2
-6 -13 -13 -31 -19 -27 -33 13 -45 20 -6 39 -11 42 -11 3 0 18 -5 34 -11 16
-6 54 -13 85 -16 52 -6 54 -5 36 9 -11 8 -23 13 -27 11 -5 -3 -8 -1 -8 4 0 12
-32 20 -107 28 -60 7 -77 13 -55 21 18 7 96 73 85 73 -4 0 -3 4 4 8 17 11 46
82 33 82 -5 0 -10 -3 -10 -7z"/>
<path d="M1248 1330 c-15 -5 -29 -5 -32 -2 -3 3 -6 0 -6 -6 0 -6 -7 -9 -15 -6
-8 4 -15 1 -15 -6 0 -6 -4 -9 -9 -6 -5 3 -14 -1 -21 -9 -14 -17 -18 -16 95
-20 85 -3 204 32 190 55 -6 10 -149 10 -187 0z"/>
<path d="M2582 1332 c-10 -7 -4 -14 23 -26 48 -23 68 -27 149 -30 83 -4 106 1
106 22 0 8 -3 12 -7 9 -3 -4 -11 -3 -17 2 -7 6 -25 13 -41 16 -51 12 -199 16
-213 7z"/>
<path d="M3745 851 c-3 -7 -12 -11 -18 -10 -7 1 -28 1 -48 0 l-35 -1 1 -62 c0
-56 3 -63 20 -63 11 0 26 -4 33 -8 7 -5 12 -4 12 2 0 6 10 9 23 7 12 -3 29 -5
38 -5 9 -1 27 -10 40 -21 l24 -20 -30 5 c-29 5 -28 4 5 -9 19 -8 31 -15 26
-15 -5 -1 -2 -9 5 -18 12 -15 12 -16 -1 -8 -13 8 -13 7 -1 -8 9 -11 10 -17 2
-17 -6 0 -11 -5 -11 -11 0 -5 5 -7 10 -4 13 8 9 -17 -4 -27 -6 -4 -6 -12 0
-20 6 -7 10 -57 10 -110 -1 -92 -3 -100 -27 -124 -26 -26 -51 -32 -134 -33
l-40 -1 0 -66 -1 -66 106 4 c85 2 113 7 148 25 25 13 42 18 42 11 0 -6 3 -8 6
-5 4 4 1 14 -7 24 -8 9 -9 14 -3 10 10 -6 38 19 41 38 1 5 10 12 20 16 10 4
12 8 5 8 -8 1 -10 6 -5 14 11 18 13 365 1 401 -13 42 -38 88 -57 104 -31 26
-97 52 -131 52 -20 0 -41 5 -47 11 -8 8 -13 8 -18 0z m-65 -611 c0 -5 -2 -10
-4 -10 -3 0 -8 5 -11 10 -3 6 -1 10 4 10 6 0 11 -4 11 -10z"/>
<path d="M578 840 l-26 -5 30 -70 c17 -38 39 -90 50 -114 11 -25 22 -53 24
-64 2 -10 8 -25 14 -32 8 -10 7 -16 -7 -23 -15 -9 -13 -10 9 -9 14 1 24 5 21
10 -2 4 1 7 8 7 7 0 10 3 7 6 -3 3 11 45 31 93 l38 87 -24 54 c-13 30 -26 56
-28 58 -7 7 -116 8 -147 2z m107 -40 c-3 -5 -14 -10 -23 -10 -15 0 -15 2 -2
10 20 13 33 13 25 0z"/>
<path d="M885 842 c-28 -3 -33 -10 -79 -117 -29 -69 -52 -112 -59 -108 -5 3
-7 1 -3 -5 3 -6 2 -13 -3 -17 -6 -3 -7 -13 -4 -22 5 -12 3 -14 -7 -8 -8 5 -11
4 -7 -2 4 -6 0 -25 -9 -42 -12 -24 -19 -29 -28 -22 -9 8 -13 7 -13 -4 0 -8 4
-12 8 -9 4 2 10 0 14 -6 3 -5 1 -10 -4 -10 -6 0 -10 -3 -9 -7 0 -5 -2 -17 -6
-28 -17 -44 -49 -123 -69 -165 -11 -25 -28 -64 -38 -87 l-18 -43 34 0 c29 0
33 -3 30 -21 -3 -12 -1 -18 3 -15 4 4 7 13 7 19 0 8 20 12 53 13 55 2 65 5 68
28 5 34 16 56 26 50 6 -4 8 -3 5 3 -8 12 14 73 26 73 4 0 5 5 2 10 -3 6 -1 10
5 10 6 0 9 4 5 9 -7 12 16 62 26 56 4 -3 5 5 1 17 -4 16 -2 19 8 13 10 -6 12
-4 7 9 -6 14 -3 17 9 12 13 -5 14 -4 5 7 -8 11 -5 25 14 61 14 26 25 54 25 62
0 7 8 22 18 32 10 10 16 24 14 30 -2 7 1 12 8 12 6 0 8 5 5 10 -4 6 -3 16 2
23 5 7 22 44 38 82 15 39 33 76 38 83 7 9 1 12 -24 13 -19 1 -47 2 -64 3 -16
0 -43 0 -60 -2z m75 -68 c0 -8 -19 -13 -24 -6 -3 5 1 9 9 9 8 0 15 -2 15 -3z
m-136 -209 c-5 -13 -34 -16 -34 -3 0 4 7 8 15 8 9 0 12 6 9 18 -5 13 -4 14 4
3 6 -8 8 -19 6 -26z m-4 -151 c0 -23 -2 -24 -15 -10 -17 17 -20 30 -5 21 6 -3
10 -1 10 4 0 6 2 11 5 11 3 0 5 -12 5 -26z m-143 -230 c-3 -3 -12 -4 -19 -1
-8 3 -5 6 6 6 11 1 17 -2 13 -5z"/>
<path d="M1071 842 c-5 -2 -10 -93 -10 -203 -1 -161 1 -199 11 -193 11 6 11 5
0 -8 -9 -11 -12 -55 -11 -156 l1 -140 46 -4 c26 -1 61 -2 79 0 l32 3 0 337 c0
185 -3 343 -8 351 -8 13 -112 22 -140 13z m139 -416 c0 -3 -4 -8 -10 -11 -5
-3 -10 -1 -10 4 0 6 5 11 10 11 6 0 10 -2 10 -4z"/>
<path d="M1251 835 c-6 -9 -7 -50 -2 -106 1 -13 11 -16 49 -14 88 3 151 -32
136 -78 -4 -12 -2 -17 4 -13 13 8 10 -10 -7 -52 -18 -43 -53 -60 -123 -57 -35
1 -58 -2 -61 -9 -2 -6 -3 -36 -2 -66 l1 -55 92 1 c80 0 92 -2 87 -15 -3 -9 4
-5 15 8 11 13 20 20 20 16 0 -4 7 -2 15 5 8 7 15 9 15 5 0 -5 9 0 19 9 11 10
24 15 30 11 6 -3 9 0 5 8 -3 9 6 23 21 35 15 12 24 26 20 32 -3 5 -2 10 2 10
10 0 16 42 16 115 0 33 -8 67 -23 100 -13 28 -24 55 -23 61 0 6 -5 11 -11 11
-6 -1 -32 9 -58 21 -37 18 -68 23 -138 25 -53 1 -95 -2 -99 -8z m29 -356 c0
-6 -4 -7 -10 -4 -5 3 -10 11 -10 16 0 6 5 7 10 4 6 -3 10 -11 10 -16z"/>
<path d="M3494 842 l-32 -3 -1 -202 c-1 -137 2 -197 9 -187 6 9 10 10 10 3 0
-6 -4 -15 -10 -18 -6 -4 -10 -65 -10 -151 l0 -144 28 0 c21 0 24 -2 12 -10 -8
-5 -10 -10 -5 -10 6 0 16 5 23 12 9 9 12 9 12 -3 0 -12 2 -12 10 1 5 9 22 13
44 12 l36 -3 0 145 c0 134 -1 145 -17 139 -17 -6 -17 -6 -1 10 14 15 17 43 18
206 0 134 -3 192 -11 197 -13 8 -67 11 -115 6z m26 -168 c0 -8 -19 -13 -24 -6
-3 5 1 9 9 9 8 0 15 -2 15 -3z"/>
<path d="M0 805 c0 -22 6 -38 15 -41 20 -8 19 -34 -1 -34 -14 0 -14 -3 -4 -15
9 -10 9 -15 1 -15 -6 0 -11 -9 -11 -21 0 -15 5 -19 15 -15 8 3 15 1 15 -5 0
-6 4 -8 10 -4 5 3 18 -3 28 -13 14 -14 16 -22 8 -33 -15 -19 -37 -22 -30 -4 4
8 10 15 16 15 5 0 6 5 2 11 -3 6 -17 9 -30 6 -13 -2 -25 1 -28 7 -3 7 -5 7 -5
-1 -1 -6 4 -15 9 -18 8 -5 7 -11 0 -20 -15 -18 -10 -472 5 -465 6 3 9 9 7 15
-2 5 5 1 16 -8 14 -13 20 -14 19 -5 -1 34 4 49 15 42 7 -4 8 -3 4 5 -4 6 -11
9 -16 6 -4 -3 -10 4 -13 14 -3 13 1 21 15 24 15 4 17 3 8 -8 -9 -10 -7 -16 9
-24 16 -9 20 -8 24 7 4 16 5 16 6 0 0 -10 -8 -23 -19 -30 -23 -15 -27 -33 -5
-24 14 5 20 -5 16 -27 -1 -5 3 -6 9 -2 6 3 8 10 6 14 -3 4 5 7 17 7 22 -1 22
1 24 167 1 158 0 167 -18 167 -10 0 -19 4 -19 10 0 5 6 7 14 4 19 -7 27 32 25
132 -1 81 -3 84 -23 79 -20 -5 -20 -4 2 6 24 13 29 38 10 58 -10 11 -10 13 0
7 7 -4 12 -1 12 8 0 9 -4 16 -10 16 -5 0 -10 5 -10 11 0 5 5 7 10 4 6 -3 10 1
10 9 0 20 -85 23 -94 4 -5 -10 -7 -10 -12 0 -3 6 -17 12 -30 12 -21 0 -24 -5
-24 -35z m58 -11 c2 -14 -4 -19 -21 -20 -17 -1 -24 3 -23 15 2 34 39 39 44 5z
m62 -8 c0 -2 -7 -7 -16 -10 -8 -3 -12 -2 -9 4 6 10 25 14 25 6z m-63 -83 c-4
-3 -1 -13 6 -22 10 -14 10 -14 -4 -4 -9 7 -19 10 -22 6 -4 -3 -7 -1 -7 5 0 5
6 13 13 15 18 8 21 8 14 0z m-2 -144 c4 -12 2 -26 -5 -33 -8 -8 -10 -7 -4 7 4
12 0 23 -12 32 -17 13 -17 14 -2 15 9 0 20 -9 23 -21z m40 1 c-3 -5 -12 -10
-18 -10 -7 0 -6 4 3 10 19 12 23 12 15 0z m-1 -96 c9 -24 7 -28 -9 -14 -8 7
-21 10 -30 7 -8 -4 -17 -1 -21 5 -4 6 -3 8 2 5 6 -3 16 -2 24 4 21 12 27 11
34 -7z m-30 -36 c-3 -4 -11 -5 -19 -1 -21 7 -19 12 4 10 11 0 18 -5 15 -9z
m66 -88 c0 -5 -2 -10 -4 -10 -3 0 -8 5 -11 10 -3 6 -1 10 4 10 6 0 11 -4 11
-10z m-80 -166 c0 -8 -4 -12 -10 -9 -5 3 -10 10 -10 16 0 5 5 9 10 9 6 0 10
-7 10 -16z"/>
<path d="M188 828 c-3 -7 -4 -35 -3 -63 l1 -50 164 0 164 0 2 50 c0 28 -1 55
-3 62 -6 16 -245 16 -255 0 -6 -9 -8 -9 -8 1 0 7 -13 12 -29 12 -16 0 -31 -6
-33 -12z"/>
<path d="M1843 821 c-76 -26 -136 -80 -174 -156 -35 -72 -50 -176 -30 -213 8
-14 8 -22 1 -22 -21 0 -9 -30 13 -31 15 -1 17 -3 5 -6 -13 -3 -15 -10 -9 -31
5 -15 6 -33 4 -40 -3 -7 -1 -12 4 -11 20 3 27 -2 13 -11 -13 -8 -12 -10 3 -10
20 0 22 -10 5 -31 -11 -11 -11 -12 1 -2 11 9 21 3 52 -29 22 -23 39 -45 39
-49 0 -5 6 -6 14 -3 8 3 17 0 22 -7 5 -8 3 -10 -6 -4 -9 5 -11 4 -6 -3 5 -8
13 -9 26 -2 13 7 19 6 23 -3 3 -7 18 -12 33 -12 23 1 29 6 29 26 0 17 5 23 17
21 9 -1 19 2 23 8 3 5 1 10 -5 10 -8 0 -8 6 0 20 9 18 8 20 -15 20 -14 0 -25
-5 -25 -11 0 -5 -5 -7 -12 -3 -8 5 -3 12 16 19 l28 12 -43 21 c-46 23 -76 63
-89 119 -5 20 -3 36 4 44 8 9 8 10 -1 5 -15 -8 -18 10 -3 19 6 3 10 12 9 18 0
9 -2 9 -6 0 -2 -7 -9 -13 -14 -13 -6 0 -6 7 -1 18 5 9 7 23 5 30 -3 7 3 23 13
34 11 12 14 18 7 15 -7 -5 -9 0 -6 13 6 21 31 23 46 5 5 -6 7 -4 4 5 -2 8 -9
16 -15 16 -7 1 -15 2 -18 3 -16 3 42 62 81 80 l45 21 0 60 c0 59 -1 60 -27 60
-16 -1 -51 -9 -80 -19z m-94 -335 c25 -14 24 -14 -10 -13 -22 1 -36 6 -36 14
0 16 15 16 46 -1z m-42 -82 c-3 -3 -12 -4 -19 -1 -8 3 -5 6 6 6 11 1 17 -2 13
-5z m63 -19 c11 -13 10 -14 -4 -9 -9 3 -16 10 -16 15 0 13 6 11 20 -6z m93
-220 c-3 -9 -8 -14 -10 -11 -3 3 -2 9 2 15 9 16 15 13 8 -4z"/>
<path d="M1978 828 c-2 -7 -4 -34 -3 -60 0 -46 1 -48 45 -70 77 -39 135 -139
107 -184 -3 -6 -2 -16 2 -23 5 -7 6 -22 3 -34 -4 -15 -2 -18 9 -12 11 7 12 6
2 -6 -6 -8 -13 -29 -16 -48 -6 -35 -75 -111 -102 -111 -7 0 -15 -9 -18 -21 -4
-13 -10 -18 -17 -14 -9 6 -9 2 0 -15 8 -15 9 -25 2 -29 -10 -6 -15 -25 -13
-50 1 -10 10 -12 36 -8 19 3 37 1 40 -4 4 -5 12 -9 18 -9 8 0 8 3 -1 9 -11 7
-10 10 3 15 9 3 21 4 26 0 5 -3 9 0 9 6 0 7 7 9 16 6 8 -3 13 -2 10 3 -3 5 10
16 30 26 19 9 38 24 41 33 4 9 14 28 23 42 42 63 54 87 57 120 2 19 5 40 8 47
2 6 -1 13 -7 15 -6 2 -12 14 -13 26 -2 24 10 30 18 10 3 -8 6 -6 6 4 1 9 -7
22 -16 27 -10 6 -12 11 -5 11 6 0 12 11 12 25 0 28 -3 29 -28 16 -12 -6 -24
-4 -37 5 -18 13 -17 14 11 8 87 -17 17 139 -92 205 -77 47 -157 66 -166 39z
m240 -279 c-15 -10 -28 -2 -28 17 0 12 4 12 20 2 13 -8 16 -15 8 -19z m-28
-41 c0 -13 -32 -6 -37 9 -3 7 3 9 16 6 12 -3 21 -10 21 -15z"/>
<path d="M2498 826 c-102 -27 -152 -86 -152 -176 0 -69 6 -110 16 -110 4 0 8
-5 8 -11 0 -5 -4 -7 -10 -4 -6 4 -7 -1 -3 -11 4 -11 8 -13 11 -6 2 8 15 3 36
-13 18 -14 36 -25 39 -25 4 0 30 -11 57 -24 28 -13 48 -20 44 -15 -3 5 3 9 12
9 10 0 26 8 36 17 13 12 18 13 16 4 -2 -7 5 -15 15 -16 10 -2 26 -6 35 -10 15
-6 15 -8 -3 -21 -19 -15 -19 -15 8 -10 15 2 27 1 27 -4 0 -6 11 -5 27 1 18 7
30 6 37 -1 7 -7 2 -10 -15 -10 -16 0 -26 -6 -26 -14 0 -8 3 -15 6 -14 3 0 13
0 21 -1 12 -1 12 -3 2 -10 -8 -5 -15 -20 -15 -35 -1 -14 -6 -26 -10 -26 -5 0
-6 -4 -3 -9 4 -5 -3 -7 -15 -4 -12 3 -18 11 -15 19 3 8 1 14 -4 14 -13 0 -13
-16 -1 -39 8 -13 5 -17 -12 -18 -17 -2 -19 0 -7 7 13 9 13 10 0 10 -23 0 -48
-20 -32 -27 6 -2 12 -12 12 -21 0 -15 -2 -15 -11 -2 -8 12 -9 11 -6 -5 2 -11
9 -19 16 -17 7 1 11 -3 8 -10 -2 -7 -10 -12 -16 -10 -6 1 -11 -7 -11 -17 0
-16 7 -19 42 -18 23 1 43 8 46 15 3 10 7 10 20 0 12 -10 14 -10 8 -1 -5 9 -2
11 9 7 8 -4 22 -1 30 6 8 6 20 8 26 4 8 -4 9 -3 5 4 -4 7 -2 12 4 12 7 0 10 6
7 13 -2 6 -10 11 -16 9 -6 -1 -11 2 -11 8 0 5 7 10 15 10 8 0 15 -5 15 -12 0
-26 49 36 58 75 9 34 8 43 -6 53 -16 12 -16 13 0 19 25 10 13 24 -15 19 l-22
-5 23 10 c29 13 28 25 -4 50 -20 16 -23 21 -10 21 10 0 14 5 11 10 -4 6 -11 7
-17 4 -6 -4 -8 -3 -5 2 3 6 3 15 -1 21 -9 14 -87 53 -107 53 -8 0 -15 4 -15
10 0 5 -10 14 -22 20 -23 11 -23 11 -3 -5 19 -16 19 -17 -10 -11 -16 4 -41 8
-54 11 -14 2 -28 10 -32 16 -5 8 -8 7 -13 -2 -3 -8 -5 -5 -3 6 3 16 -1 21 -17
22 -12 1 -15 -1 -8 -4 6 -3 12 -9 12 -14 0 -6 -8 -5 -20 1 -11 6 -18 15 -15
20 3 6 0 7 -8 4 -8 -3 -14 2 -14 11 0 10 6 14 16 10 8 -3 12 -3 8 1 -4 4 -1
14 5 23 10 13 10 14 -2 4 -32 -29 -42 -5 -11 26 11 11 25 19 33 18 46 -2 48 1
48 63 0 59 0 60 -27 59 -16 0 -49 -6 -75 -13z m286 -352 c-3 -35 -14 -44 -14
-12 0 21 7 38 15 38 1 0 1 -12 -1 -26z m36 -98 c0 -2 -7 -6 -15 -10 -8 -3 -15
-1 -15 4 0 6 7 10 15 10 8 0 15 -2 15 -4z m-61 -113 c-3 -19 3 -22 29 -13 25
9 26 9 8 -5 -25 -19 -29 -19 -51 5 -16 18 -16 20 -2 20 10 0 16 -3 16 -7z"/>
<path d="M2622 782 c1 -60 2 -60 39 -75 20 -8 42 -25 49 -37 10 -18 10 -21 -2
-14 -9 6 -9 2 2 -12 21 -27 33 -34 48 -29 6 2 12 -1 12 -8 0 -9 2 -9 8 0 4 7
25 14 47 17 22 2 43 5 46 5 3 1 4 14 1 31 -2 16 -8 27 -13 24 -5 -3 -6 2 -3
10 18 46 -97 133 -191 143 l-44 5 1 -60z"/>
<path d="M2910 805 c0 -19 5 -35 11 -35 6 0 9 9 6 19 -5 20 17 36 34 25 17
-10 10 -42 -8 -40 -13 1 -17 -5 -16 -21 2 -16 -3 -23 -13 -23 -14 0 -14 -3 -4
-15 9 -10 9 -15 1 -15 -6 0 -11 -9 -11 -21 0 -15 5 -19 15 -15 8 3 15 1 15 -5
0 -6 5 -7 10 -4 6 3 10 2 10 -3 0 -5 10 -13 23 -17 19 -6 20 -8 4 -12 -10 -3
-16 -10 -14 -17 3 -7 -1 -13 -8 -13 -10 0 -11 5 -4 18 6 11 5 20 -1 24 -5 3
-10 1 -10 -5 0 -7 -7 -4 -16 5 -19 19 -32 12 -15 -9 8 -9 8 -16 2 -20 -16 -10
-14 -446 2 -446 8 0 7 -4 -3 -11 -12 -9 -12 -10 3 -5 10 3 23 6 29 6 6 0 6 6
-2 15 -7 8 -9 16 -4 16 20 3 30 6 47 13 10 5 21 6 24 3 3 -4 -6 -12 -20 -18
-21 -9 -23 -14 -13 -25 7 -7 28 -12 47 -11 l34 2 3 167 c2 142 0 168 -12 168
-8 0 -16 -6 -19 -12 -3 -7 -4 -3 -4 10 1 13 6 21 13 18 7 -3 15 7 19 21 10 40
4 176 -9 192 -8 11 -8 13 2 7 8 -5 12 1 12 23 0 16 -6 32 -12 34 -10 4 -10 6
0 6 7 1 12 14 12 31 0 29 -2 30 -44 30 -26 0 -47 -5 -50 -12 -5 -10 -7 -10
-12 0 -3 6 -17 12 -30 12 -21 0 -24 -5 -24 -35z m50 -110 c-7 -9 -15 -13 -19
-10 -3 3 1 10 9 15 21 14 24 12 10 -5z m30 -25 c0 -5 -7 -7 -15 -4 -8 4 -15 8
-15 10 0 2 7 4 15 4 8 0 15 -4 15 -10z m40 -90 c0 -5 -5 -10 -11 -10 -5 0 -7
5 -4 10 3 6 8 10 11 10 2 0 4 -4 4 -10z m-62 -25 c1 -13 -2 -26 -7 -30 -5 -3
-7 4 -4 15 5 18 -5 25 -30 21 -5 -1 -6 3 -2 9 12 20 41 11 43 -15z m37 -85
c-3 -5 -13 -10 -21 -10 -8 0 -14 5 -14 10 0 6 9 10 21 10 11 0 17 -4 14 -10z
m-45 -20 c0 -5 -2 -10 -4 -10 -3 0 -8 5 -11 10 -3 6 -1 10 4 10 6 0 11 -4 11
-10z m87 -72 c-3 -8 -6 -5 -6 6 -1 11 2 17 5 13 3 -3 4 -12 1 -19z m-61 -150
c5 -7 3 -8 -6 -3 -9 6 -10 2 -5 -16 7 -23 6 -23 -11 -6 -17 15 -17 19 -4 27
19 12 17 12 26 -2z"/>
<path d="M3097 832 c-2 -4 -3 -32 -2 -62 l0 -55 165 0 165 0 0 60 0 60 -162 2
c-90 1 -164 -1 -166 -5z"/>
<path d="M268 683 c7 -3 16 -2 19 1 4 3 -2 6 -13 5 -11 0 -14 -3 -6 -6z"/>
<path d="M393 675 c0 -8 4 -15 9 -15 4 0 8 4 8 9 0 6 -4 12 -8 15 -5 3 -9 -1
-9 -9z"/>
<path d="M477 679 c7 -7 15 -10 18 -7 3 3 -2 9 -12 12 -14 6 -15 5 -6 -5z"/>
<path d="M1000 681 c0 -6 4 -13 10 -16 6 -3 7 1 4 9 -7 18 -14 21 -14 7z"/>
<path d="M1356 677 c3 -10 9 -15 12 -12 3 3 0 11 -7 18 -10 9 -11 8 -5 -6z"/>
<path d="M3268 683 c7 -3 16 -2 19 1 4 3 -2 6 -13 5 -11 0 -14 -3 -6 -6z"/>
<path d="M3755 679 c-4 -6 -5 -12 -2 -15 2 -3 7 2 10 11 7 17 1 20 -8 4z"/>
<path d="M352 664 c10 -10 20 -16 22 -13 3 3 -5 11 -17 18 -21 13 -21 12 -5
-5z"/>
<path d="M438 655 c-6 -13 -15 -22 -21 -18 -6 4 -7 1 -2 -7 6 -10 11 -9 22 5
7 11 13 23 13 28 0 4 5 5 12 1 7 -4 8 -3 4 4 -10 17 -15 15 -28 -13z"/>
<path d="M1253 659 c-2 -23 3 -25 10 -4 4 8 3 16 -1 19 -4 3 -9 -4 -9 -15z"/>
<path d="M1320 658 c-10 -21 -10 -21 3 -6 8 10 18 14 22 10 5 -4 5 -1 1 6 -10
17 -14 15 -26 -10z"/>
<path d="M2560 670 c-8 -5 -11 -13 -6 -17 5 -4 11 -2 13 5 3 6 10 9 15 6 7 -4
8 -2 4 4 -9 14 -7 14 -26 2z"/>
<path d="M2630 670 c0 -5 5 -10 10 -10 6 0 10 5 10 10 0 6 -4 10 -10 10 -5 0
-10 -4 -10 -10z"/>
<path d="M3216 667 c3 -10 9 -15 12 -12 3 3 0 11 -7 18 -10 9 -11 8 -5 -6z"/>
<path d="M3294 669 c-4 -7 -3 -9 4 -5 5 3 13 0 15 -6 4 -9 6 -10 6 -1 1 17
-16 25 -25 12z"/>
<path d="M3350 670 c0 -5 5 -10 10 -10 6 0 10 5 10 10 0 6 -4 10 -10 10 -5 0
-10 -4 -10 -10z"/>
<path d="M3695 670 c5 -9 1 -10 -16 -6 -21 6 -22 6 -6 -5 13 -7 22 -8 29 -1 6
6 6 12 -3 17 -8 6 -10 4 -4 -5z"/>
<path d="M251 663 c-1 -17 16 -25 25 -12 4 7 3 9 -4 5 -5 -3 -13 0 -15 6 -4 9
-6 10 -6 1z"/>
<path d="M306 653 c-6 -14 -5 -15 5 -6 7 7 10 15 7 18 -3 3 -9 -2 -12 -12z"/>
<path d="M1376 653 c-6 -14 -5 -15 5 -6 7 7 10 15 7 18 -3 3 -9 -2 -12 -12z"/>
<path d="M1413 655 c0 -8 4 -12 9 -9 5 3 6 10 3 15 -9 13 -12 11 -12 -6z"/>
<path d="M1853 655 c-3 -9 -3 -18 -1 -21 3 -3 8 4 11 16 6 23 -1 27 -10 5z"/>
<path d="M3246 655 c-3 -8 -1 -15 5 -15 6 0 7 -5 3 -12 -4 -6 -3 -8 4 -5 5 4
8 16 5 27 -6 24 -9 25 -17 5z"/>
<path d="M3400 655 c0 -8 4 -15 10 -15 5 0 7 7 4 15 -4 8 -8 15 -10 15 -2 0
-4 -7 -4 -15z"/>
<path d="M336 647 c3 -10 9 -15 12 -12 3 3 0 11 -7 18 -10 9 -11 8 -5 -6z"/>
<path d="M590 650 c0 -5 5 -10 11 -10 5 0 7 5 4 10 -3 6 -8 10 -11 10 -2 0 -4
-4 -4 -10z"/>
<path d="M970 656 c0 -2 7 -7 16 -10 8 -3 12 -2 9 4 -6 10 -25 14 -25 6z"/>
<path d="M1290 640 c6 -11 13 -20 16 -20 2 0 0 9 -6 20 -6 11 -13 20 -16 20
-2 0 0 -9 6 -20z"/>
<path d="M1906 645 c4 -8 11 -15 16 -15 6 0 5 6 -2 15 -7 8 -14 15 -16 15 -2
0 -1 -7 2 -15z"/>
<path d="M1935 650 c3 -5 8 -10 11 -10 2 0 4 5 4 10 0 6 -5 10 -11 10 -5 0 -7
-4 -4 -10z"/>
<path d="M3126 651 c-3 -5 1 -11 9 -14 9 -4 12 -1 8 9 -6 16 -10 17 -17 5z"/>
<path d="M3195 651 c-3 -5 -2 -12 3 -15 5 -3 9 1 9 9 0 17 -3 19 -12 6z"/>
<path d="M3731 644 c0 -11 3 -14 6 -6 3 7 2 16 -1 19 -3 4 -6 -2 -5 -13z"/>
<path d="M3791 647 c-1 -11 -6 -15 -13 -11 -7 5 -8 3 -3 -5 10 -16 29 2 22 21
-4 8 -6 7 -6 -5z"/>
<path d="M473 635 c0 -8 4 -15 9 -15 4 0 8 4 8 9 0 6 -4 12 -8 15 -5 3 -9 -1
-9 -9z"/>
<path d="M3170 641 c0 -6 4 -13 10 -16 6 -3 7 1 4 9 -7 18 -14 21 -14 7z"/>
<path d="M3355 640 c-3 -5 -1 -10 4 -10 6 0 11 5 11 10 0 6 -2 10 -4 10 -3 0
-8 -4 -11 -10z"/>
<path d="M210 629 c0 -5 5 -7 10 -4 6 3 10 8 10 11 0 2 -4 4 -10 4 -5 0 -10
-5 -10 -11z"/>
<path d="M236 625 c-9 -26 -7 -32 5 -12 6 10 9 21 6 23 -2 3 -7 -2 -11 -11z"/>
<path d="M615 631 c-6 -11 13 -26 22 -17 4 3 1 6 -6 6 -7 0 -9 5 -6 10 3 6 4
10 1 10 -3 0 -7 -4 -11 -9z"/>
<path d="M970 630 c0 -5 5 -10 11 -10 5 0 7 5 4 10 -3 6 -8 10 -11 10 -2 0 -4
-4 -4 -10z"/>
<path d="M2070 630 c0 -5 5 -10 10 -10 6 0 10 5 10 10 0 6 -4 10 -10 10 -5 0
-10 -4 -10 -10z"/>
<path d="M2633 625 c0 -8 4 -12 9 -9 5 3 6 10 3 15 -9 13 -12 11 -12 -6z"/>
<path d="M2672 631 c-11 -7 -11 -9 0 -14 9 -3 15 1 15 9 0 8 -1 14 -1 14 -1 0
-7 -4 -14 -9z"/>
<path d="M3655 631 c-3 -5 0 -13 6 -17 7 -4 9 -3 5 4 -3 5 0 13 6 15 9 4 10 6
1 6 -6 1 -14 -3 -18 -8z"/>
<path d="M3750 635 c0 -5 5 -17 10 -25 5 -8 10 -10 10 -5 0 6 -5 17 -10 25 -5
8 -10 11 -10 5z"/>
<path d="M258 618 c-7 -17 15 -19 29 -3 4 4 3 5 -4 2 -6 -4 -13 -2 -15 5 -3 8
-6 6 -10 -4z"/>
<path d="M1406 613 c-6 -14 -5 -15 5 -6 7 7 10 15 7 18 -3 3 -9 -2 -12 -12z"/>
<path d="M1873 602 c-1 -22 0 -24 9 -8 6 10 6 22 2 26 -5 5 -10 -3 -11 -18z"/>
<path d="M2700 621 c0 -10 19 -25 25 -20 1 2 -3 10 -11 17 -8 7 -14 8 -14 3z"/>
<path d="M3270 615 c-7 -9 -11 -17 -9 -20 3 -2 10 5 17 15 14 24 10 26 -8 5z"/>
<path d="M334 609 c-4 -7 -3 -9 4 -5 5 3 13 0 15 -6 4 -9 6 -10 6 -1 1 17 -16
25 -25 12z"/>
<path d="M387 603 c3 -7 9 -10 14 -7 14 8 11 21 -5 21 -8 0 -12 -6 -9 -14z"/>
<path d="M445 610 c3 -5 8 -10 11 -10 2 0 4 5 4 10 0 6 -5 10 -11 10 -5 0 -7
-4 -4 -10z"/>
<path d="M1282 606 c7 -8 15 -12 17 -11 5 6 -10 25 -20 25 -5 0 -4 -6 3 -14z"/>
<path d="M1316 605 c-9 -26 -7 -32 5 -12 6 10 9 21 6 23 -2 3 -7 -2 -11 -11z"/>
<path d="M2005 610 c-3 -6 1 -7 9 -4 18 7 21 14 7 14 -6 0 -13 -4 -16 -10z"/>
<path d="M3100 616 c0 -2 8 -10 18 -17 15 -13 16 -12 3 4 -13 16 -21 21 -21
13z"/>
<path d="M3147 613 c-3 -5 6 -9 20 -10 19 -1 22 1 12 8 -17 11 -26 11 -32 2z"/>
<path d="M3206 612 c-3 -5 1 -9 9 -9 8 0 15 4 15 9 0 4 -4 8 -9 8 -6 0 -12 -4
-15 -8z"/>
<path d="M3300 609 c0 -5 5 -7 10 -4 6 3 10 8 10 11 0 2 -4 4 -10 4 -5 0 -10
-5 -10 -11z"/>
<path d="M3330 610 c0 -5 5 -10 10 -10 6 0 10 5 10 10 0 6 -4 10 -10 10 -5 0
-10 -4 -10 -10z"/>
<path d="M3365 610 c-3 -6 1 -7 9 -4 18 7 21 14 7 14 -6 0 -13 -4 -16 -10z"/>
<path d="M3730 610 c0 -5 5 -10 11 -10 5 0 7 5 4 10 -3 6 -8 10 -11 10 -2 0
-4 -4 -4 -10z"/>
<path d="M3805 610 c3 -5 8 -10 11 -10 2 0 4 5 4 10 0 6 -5 10 -11 10 -5 0 -7
-4 -4 -10z"/>
<path d="M473 594 c-3 -9 -13 -14 -24 -11 -11 3 -19 0 -19 -6 0 -7 -5 -5 -10
3 -5 8 -10 11 -10 5 0 -6 -38 -9 -100 -8 -90 2 -99 1 -93 -15 4 -13 2 -13 -11
3 -16 19 -16 19 -12 -12 2 -18 1 -33 -3 -33 -4 0 -7 -17 -6 -37 1 -27 6 -37
16 -34 8 2 19 3 24 2 26 -4 241 -7 253 -3 8 3 12 25 12 64 0 37 -4 57 -10 53
-5 -3 -10 -1 -10 4 0 6 4 11 8 11 5 0 9 7 9 15 0 19 -6 19 -14 -1z m-19 -66
c-3 -5 -12 -4 -20 3 -19 16 -18 18 6 12 11 -3 17 -9 14 -15z m-252 -70 c-7 -7
-12 -8 -12 -2 0 14 12 26 19 19 2 -3 -1 -11 -7 -17z"/>
<path d="M968 603 c6 -2 9 -10 6 -15 -4 -7 -2 -8 5 -4 13 9 5 26 -12 25 -9 0
-8 -2 1 -6z"/>
<path d="M1361 602 c-1 -7 -5 -11 -10 -7 -5 3 -13 0 -17 -6 -4 -7 -3 -9 4 -5
5 3 13 0 15 -6 4 -10 6 -10 6 0 1 7 5 11 10 7 5 -3 13 0 17 6 4 7 3 9 -4 5 -5
-3 -13 0 -15 6 -4 10 -6 10 -6 0z"/>
<path d="M2030 599 c-12 -8 -10 -9 9 -4 17 5 22 4 16 -5 -5 -9 -4 -11 4 -6 6
4 9 12 6 17 -8 12 -16 11 -35 -2z"/>
<path d="M1404 586 c-16 -13 -17 -17 -5 -28 12 -11 13 -11 6 0 -4 8 0 19 11
27 11 8 16 15 13 15 -3 0 -14 -6 -25 -14z"/>
<path d="M2071 577 c-13 -21 -12 -21 5 -5 10 10 16 20 13 22 -3 3 -11 -5 -18
-17z"/>
<path d="M2739 598 c-9 -30 -6 -37 12 -28 23 13 25 22 2 13 -11 -4 -14 -3 -9
5 4 7 5 12 2 12 -3 0 -6 -1 -7 -2z"/>
<path d="M3374 585 c-4 -10 -12 -11 -29 -5 -18 7 -25 4 -34 -13 l-12 -22 5 22
c3 19 1 21 -18 13 -13 -4 -29 -4 -39 1 -12 7 -17 6 -17 -3 0 -9 -3 -9 -10 2
-7 11 -10 11 -10 2 0 -7 -4 -11 -8 -8 -14 8 -63 15 -58 8 2 -4 -3 -14 -12 -22
-14 -13 -15 -13 -10 1 4 10 -1 15 -13 16 -16 2 -17 -2 -9 -17 12 -23 13 -33 2
-26 -5 3 -8 -10 -8 -30 1 -24 5 -33 14 -29 9 3 11 -1 7 -15 -4 -11 -2 -20 4
-20 6 0 11 5 11 10 0 7 7 7 18 2 14 -7 186 -9 240 -3 8 1 12 20 12 62 0 45 -3
59 -12 54 -7 -4 -5 0 5 8 15 13 16 15 2 21 -9 3 -18 0 -21 -9z m-4 -60 c0 -12
-29 -3 -34 10 -4 13 -2 14 14 5 11 -6 20 -13 20 -15z"/>
<path d="M3666 588 c3 -5 10 -6 15 -3 13 9 11 12 -6 12 -8 0 -12 -4 -9 -9z"/>
<path d="M3774 589 c-4 -7 -3 -9 4 -5 6 3 13 -2 15 -11 4 -16 5 -16 6 -1 1 21
-15 32 -25 17z"/>
<path d="M3715 580 c-3 -6 1 -7 9 -4 18 7 21 14 7 14 -6 0 -13 -4 -16 -10z"/>
<path d="M610 570 c0 -5 5 -10 10 -10 6 0 10 5 10 10 0 6 -4 10 -10 10 -5 0
-10 -4 -10 -10z"/>
<path d="M1856 567 c3 -10 9 -15 12 -12 3 3 0 11 -7 18 -10 9 -11 8 -5 -6z"/>
<path d="M1896 568 c3 -4 11 -5 19 -1 21 7 19 12 -4 10 -11 0 -18 -5 -15 -9z"/>
<path d="M2010 570 c0 -5 5 -10 10 -10 6 0 10 5 10 10 0 6 -4 10 -10 10 -5 0
-10 -4 -10 -10z"/>
<path d="M2100 568 c0 -4 4 -8 9 -8 6 0 12 4 15 8 3 5 -1 9 -9 9 -8 0 -15 -4
-15 -9z"/>
<path d="M2776 565 c-9 -26 -7 -32 5 -12 6 10 9 21 6 23 -2 3 -7 -2 -11 -11z"/>
<path d="M2835 571 c-3 -5 -2 -12 3 -15 5 -3 9 1 9 9 0 17 -3 19 -12 6z"/>
<path d="M2801 551 c-9 -6 -10 -11 -2 -15 6 -4 11 -2 11 4 0 6 5 8 12 4 7 -4
8 -3 4 4 -8 14 -7 14 -25 3z"/>
<path d="M1811 540 c0 -8 4 -22 9 -30 12 -18 12 -2 0 25 -6 13 -9 15 -9 5z"/>
<path d="M2064 540 c1 -7 6 -12 11 -12 6 -1 16 -8 23 -17 11 -14 11 -13 2 7
-6 12 -15 20 -20 17 -4 -3 -11 0 -13 5 -4 7 -5 6 -3 0z"/>
<path d="M955 529 c-4 -6 -5 -12 -2 -15 2 -3 7 2 10 11 7 17 1 20 -8 4z"/>
<path d="M2836 532 c-2 -4 -1 -14 4 -22 7 -11 9 -9 7 8 -1 24 -3 26 -11 14z"/>
<path d="M915 520 c-3 -5 -1 -10 4 -10 6 0 11 5 11 10 0 6 -2 10 -4 10 -3 0
-8 -4 -11 -10z"/>
<path d="M895 490 c-2 -3 5 -6 15 -7 11 -1 22 2 24 5 3 4 -4 8 -15 8 -11 0
-22 -3 -24 -6z"/>
<path d="M2375 481 c-3 -5 0 -13 6 -17 7 -4 9 -3 5 4 -3 5 0 13 6 15 9 4 10 6
1 6 -6 1 -14 -3 -18 -8z"/>
<path d="M653 465 c0 -8 4 -12 9 -9 5 3 6 10 3 15 -9 13 -12 11 -12 -6z"/>
<path d="M878 448 c10 -13 8 -24 -11 -62 -13 -25 -27 -43 -31 -39 -4 4 -4 1
-1 -8 3 -8 -6 -37 -19 -64 -14 -27 -23 -51 -21 -54 3 -2 5 1 5 7 0 7 4 12 10
12 5 0 9 -3 8 -7 -2 -12 39 -100 50 -107 6 -4 13 -2 17 4 3 5 11 10 16 10 6 0
8 -4 5 -8 -3 -5 1 -9 9 -9 8 0 12 4 9 9 -3 4 2 8 11 8 9 0 14 -4 11 -8 -3 -5
1 -9 9 -9 8 0 12 4 9 9 -3 4 11 8 31 8 26 0 36 4 32 13 -53 136 -126 291 -142
300 -17 9 -18 8 -7 -5z"/>
<path d="M2347 453 c-3 -5 6 -9 20 -10 19 -1 22 1 12 8 -17 11 -26 11 -32 2z"/>
<path d="M1557 439 c7 -7 15 -10 18 -7 3 3 -2 9 -12 12 -14 6 -15 5 -6 -5z"/>
<path d="M2415 430 c-3 -6 1 -7 9 -4 18 7 21 14 7 14 -6 0 -13 -4 -16 -10z"/>
<path d="M2577 433 c-3 -5 -1 -17 4 -28 6 -17 8 -17 8 -2 1 9 6 17 11 17 6 0
10 5 10 10 0 12 -27 14 -33 3z"/>
<path d="M306 408 c3 -5 8 -7 12 -4 3 3 11 -2 19 -12 13 -16 14 -16 5 2 -5 11
-17 21 -26 22 -9 1 -13 -2 -10 -8z"/>
<path d="M1560 410 c-8 -5 -10 -10 -5 -10 6 0 17 5 25 10 8 5 11 10 5 10 -5 0
-17 -5 -25 -10z"/>
<path d="M2465 411 c-3 -6 3 -9 14 -8 11 0 17 5 15 9 -7 11 -22 10 -29 -1z"/>
<path d="M2526 407 c3 -10 9 -15 12 -12 3 3 0 11 -7 18 -10 9 -11 8 -5 -6z"/>
<path d="M3154 406 c1 -8 5 -18 8 -22 4 -3 5 1 4 10 -1 8 -5 18 -8 22 -4 3 -5
-1 -4 -10z"/>
<path d="M3261 404 c0 -11 3 -14 6 -6 3 7 2 16 -1 19 -3 4 -6 -2 -5 -13z"/>
<path d="M3190 395 c-11 -13 -10 -14 4 -9 9 3 16 10 16 15 0 13 -6 11 -20 -6z"/>
<path d="M230 396 c0 -2 7 -7 16 -10 8 -3 12 -2 9 4 -6 10 -25 14 -25 6z"/>
<path d="M453 393 c4 -3 1 -13 -6 -22 -11 -14 -10 -14 5 -2 16 12 16 31 1 31
-4 0 -3 -3 0 -7z"/>
<path d="M2373 387 c-3 -6 -1 -7 5 -3 7 4 12 2 12 -3 0 -6 -16 -11 -36 -11
l-37 0 7 -42 c4 -24 19 -63 34 -88 14 -25 25 -48 24 -52 -1 -4 9 -3 21 1 18 7
24 6 24 -4 0 -8 -4 -12 -8 -10 -10 7 -5 -22 6 -32 4 -4 5 -3 2 3 -10 17 20 26
35 11 16 -15 58 -18 58 -4 0 5 6 4 14 -2 10 -9 16 -9 21 -1 5 8 11 8 19 1 15
-12 26 -5 26 17 0 9 -6 12 -17 8 -15 -6 -15 -5 -2 11 8 10 14 31 14 46 0 24
-6 31 -40 42 -48 17 -83 54 -63 66 10 7 11 9 0 9 -7 0 -17 10 -22 23 -5 12 -9
16 -9 9 -1 -10 -6 -10 -21 -2 -14 8 -20 8 -20 0 0 -6 -5 -8 -10 -5 -6 4 -8 10
-6 14 3 4 -2 8 -10 8 -8 0 -18 -5 -21 -10z"/>
<path d="M2510 391 c0 -10 29 -36 34 -30 1 2 -6 12 -16 22 -10 9 -18 13 -18 8z"/>
<path d="M273 376 c0 -7 6 -13 14 -13 7 0 13 4 13 8 0 4 -6 9 -13 12 -8 3 -14
0 -14 -7z"/>
<path d="M313 362 c-1 -22 0 -24 9 -8 6 10 6 22 2 26 -5 5 -10 -3 -11 -18z"/>
<path d="M1562 370 c-7 -12 -8 -20 -2 -20 5 0 10 5 10 11 0 5 4 7 10 4 6 -3 7
1 4 9 -8 20 -7 20 -22 -4z"/>
<path d="M2670 386 c0 -2 8 -10 18 -17 15 -13 16 -12 3 4 -13 16 -21 21 -21
13z"/>
<path d="M3235 380 c-4 -6 -11 -8 -16 -5 -5 4 -9 1 -9 -4 0 -16 16 -13 30 4 7
8 10 15 7 15 -3 0 -9 -5 -12 -10z"/>
<path d="M3290 381 c0 -6 4 -13 10 -16 6 -3 7 1 4 9 -7 18 -14 21 -14 7z"/>
<path d="M391 363 c7 -12 15 -20 18 -17 3 2 -3 12 -13 22 -17 16 -18 16 -5 -5z"/>
<path d="M1456 372 c-3 -5 1 -9 9 -9 8 0 12 4 9 9 -3 4 -7 8 -9 8 -2 0 -6 -4
-9 -8z"/>
<path d="M1507 362 c3 -7 9 -10 12 -5 3 4 10 11 15 15 4 4 -1 6 -12 5 -12 -1
-18 -6 -15 -15z"/>
<path d="M2645 369 c-4 -6 -4 -13 -1 -16 3 -4 6 -1 6 6 0 7 5 9 12 5 7 -4 8
-3 4 4 -9 15 -13 15 -21 1z"/>
<path d="M3118 373 c7 -3 16 -2 19 1 4 3 -2 6 -13 5 -11 0 -14 -3 -6 -6z"/>
<path d="M3260 376 c0 -2 8 -10 18 -17 15 -13 16 -12 3 4 -13 16 -21 21 -21
13z"/>
<path d="M237 359 c7 -7 15 -10 18 -7 3 3 -2 9 -12 12 -14 6 -15 5 -6 -5z"/>
<path d="M1376 353 c-6 -14 -5 -15 5 -6 7 7 10 15 7 18 -3 3 -9 -2 -12 -12z"/>
<path d="M3150 360 c0 -5 5 -10 11 -10 5 0 7 5 4 10 -3 6 -8 10 -11 10 -2 0
-4 -4 -4 -10z"/>
<path d="M370 350 c0 -5 5 -10 11 -10 5 0 7 5 4 10 -3 6 -8 10 -11 10 -2 0 -4
-4 -4 -10z"/>
<path d="M1390 336 c-7 -14 -18 -22 -26 -19 -8 3 -14 3 -14 0 0 -3 6 -7 14
-10 14 -5 53 39 43 49 -2 2 -9 -7 -17 -20z"/>
<path d="M2604 344 c-18 -14 -18 -15 4 -4 12 6 22 13 22 15 0 8 -5 6 -26 -11z"/>
<path d="M3234 349 c-12 -20 12 -31 27 -12 13 17 13 17 -5 3 -18 -14 -19 -13
-13 3 7 19 2 23 -9 6z"/>
<path d="M211 334 c0 -11 3 -14 6 -6 3 7 2 16 -1 19 -3 4 -6 -2 -5 -13z"/>
<path d="M330 344 c0 -19 48 -46 56 -32 4 6 3 8 -4 4 -6 -3 -15 2 -21 11 -6
10 -11 14 -11 8 0 -5 -5 -3 -10 5 -5 8 -10 10 -10 4z"/>
<path d="M1470 343 c5 -2 8 -9 5 -13 -3 -5 5 -14 17 -20 22 -11 22 -11 3 5
-11 9 -19 19 -17 23 2 3 -1 7 -7 9 -7 1 -8 0 -1 -4z"/>
<path d="M2515 340 c-3 -6 1 -7 9 -4 18 7 21 14 7 14 -6 0 -13 -4 -16 -10z"/>
<path d="M260 325 c-7 -9 -11 -17 -9 -20 3 -2 10 5 17 15 14 24 10 26 -8 5z"/>
<path d="M421 327 c-1 -11 -6 -15 -13 -11 -7 5 -8 3 -3 -5 10 -16 29 2 22 21
-4 8 -6 7 -6 -5z"/>
<path d="M459 319 l-24 -20 28 17 c15 9 27 18 27 20 0 8 -8 4 -31 -17z"/>
<path d="M1425 327 c-14 -11 -15 -16 -5 -22 9 -5 11 -4 6 3 -7 11 6 17 27 13
5 -1 6 3 2 9 -8 13 -8 13 -30 -3z"/>
<path d="M1530 332 c0 -5 7 -9 15 -9 8 0 12 4 9 9 -3 4 -9 8 -15 8 -5 0 -9 -4
-9 -8z"/>
<path d="M2636 329 c3 -5 0 -9 -7 -9 -7 0 -9 -3 -6 -6 4 -4 12 -2 19 3 7 6 26
9 42 7 15 -1 25 0 22 3 -10 10 -76 11 -70 2z"/>
<path d="M3140 336 c0 -2 8 -10 18 -17 15 -13 16 -12 3 4 -13 16 -21 21 -21
13z"/>
<path d="M3281 327 c-1 -11 -6 -15 -13 -11 -7 5 -8 3 -3 -5 10 -16 29 2 22 21
-4 8 -6 7 -6 -5z"/>
<path d="M3350 335 c0 -5 5 -17 10 -25 5 -8 10 -10 10 -5 0 6 -5 17 -10 25 -5
8 -10 11 -10 5z"/>
<path d="M3190 319 c-12 -8 -10 -9 9 -4 17 5 22 4 16 -5 -5 -9 -4 -11 4 -6 6
4 9 12 6 17 -8 12 -16 11 -35 -2z"/>
<path d="M276 312 c-3 -4 4 -9 15 -9 23 -2 25 3 4 10 -8 4 -16 3 -19 -1z"/>
<path d="M2580 316 c0 -2 7 -7 16 -10 8 -3 12 -2 9 4 -6 10 -25 14 -25 6z"/>
<path d="M3330 310 c0 -5 5 -10 11 -10 5 0 7 5 4 10 -3 6 -8 10 -11 10 -2 0
-4 -4 -4 -10z"/>
<path d="M1261 294 c0 -11 3 -14 6 -6 3 7 2 16 -1 19 -3 4 -6 -2 -5 -13z"/>
<path d="M1437 297 c-3 -8 1 -14 8 -14 7 0 11 6 8 14 -6 16 -10 16 -16 0z"/>
<path d="M1312 295 c3 -3 16 -8 28 -10 12 -2 20 -1 16 2 -4 4 -16 8 -28 10
-12 2 -19 1 -16 -2z"/>
<path d="M1381 291 c-10 -7 -7 -9 12 -8 14 1 23 5 20 10 -6 9 -15 9 -32 -2z"/>
<path d="M1486 287 c3 -10 9 -15 12 -12 3 3 0 11 -7 18 -10 9 -11 8 -5 -6z"/>
<path d="M263 272 c-24 -2 -43 -8 -43 -13 0 -5 -10 -14 -22 -19 -20 -8 -20 -9
-4 -9 17 -1 18 -3 4 -18 -21 -25 -9 -67 21 -71 20 -3 21 -1 12 16 -6 11 -7 22
-4 26 3 3 2 6 -4 6 -6 0 -9 9 -6 21 7 26 27 9 28 -24 2 -29 13 -47 28 -47 7 0
6 4 -3 10 -13 8 -12 10 3 10 9 0 17 -5 17 -11 0 -16 54 -6 62 11 6 13 7 12 7
-2 1 -13 14 -16 81 -17 l80 -1 1 33 c1 17 0 37 -1 42 -2 6 -2 20 -2 32 2 22
-23 39 -33 23 -4 -7 -13 -7 -24 0 -10 5 -21 7 -24 4 -6 -6 -45 -6 -102 -2 -16
2 -49 2 -72 0z m242 -62 c3 -5 1 -10 -4 -10 -6 0 -11 5 -11 10 0 6 2 10 4 10
3 0 8 -4 11 -10z m-118 -35 c0 -8 -4 -15 -9 -15 -4 0 -8 7 -8 15 0 8 4 15 8
15 5 0 9 -7 9 -15z"/>
<path d="M2270 270 c0 -5 5 -10 11 -10 5 0 7 5 4 10 -3 6 -8 10 -11 10 -2 0
-4 -4 -4 -10z"/>
<path d="M3195 269 c-3 -3 -16 -4 -31 -1 -18 3 -30 0 -36 -12 -5 -9 -13 -14
-19 -11 -5 4 -9 1 -9 -4 0 -6 5 -11 11 -11 8 0 8 -4 0 -14 -18 -21 -10 -70 12
-74 11 -2 17 3 17 17 0 11 -4 22 -9 25 -11 7 -2 46 11 46 5 0 7 -4 3 -9 -3 -5
0 -13 6 -16 6 -4 8 -17 5 -30 -4 -16 -1 -25 10 -29 24 -9 31 -7 14 4 -13 8
-12 10 3 10 9 0 17 -5 17 -10 0 -6 14 -9 30 -8 20 2 29 7 26 15 -3 7 -1 13 4
13 6 0 10 -7 10 -15 0 -12 16 -15 80 -15 l80 0 0 64 c0 47 -4 65 -15 69 -8 4
-17 2 -20 -4 -4 -5 -13 -6 -22 0 -19 10 -53 3 -53 -13 0 -7 -3 -7 -8 1 -8 13
-110 24 -117 12z m98 -89 c3 -11 1 -18 -4 -14 -5 3 -9 12 -9 20 0 20 7 17 13
-6z"/>
<path d="M1261 254 c0 -11 3 -14 6 -6 3 7 2 16 -1 19 -3 4 -6 -2 -5 -13z"/>
<path d="M1320 259 c0 -5 -4 -8 -9 -4 -5 3 -12 1 -15 -4 -4 -5 2 -8 11 -7 15
3 33 26 19 26 -3 0 -6 -5 -6 -11z"/>
<path d="M1390 266 c0 -2 8 -10 18 -17 15 -13 16 -12 3 4 -13 16 -21 21 -21
13z"/>
<path d="M2251 244 c0 -11 3 -14 6 -6 3 7 2 16 -1 19 -3 4 -6 -2 -5 -13z"/>
<path d="M2220 223 c0 -6 8 -17 18 -24 16 -13 16 -13 2 6 -8 11 -16 22 -17 24
-2 2 -3 0 -3 -6z"/>
<path d="M2845 210 c3 -5 8 -10 11 -10 2 0 4 5 4 10 0 6 -5 10 -11 10 -5 0 -7
-4 -4 -10z"/>
<path d="M3970 205 c0 -8 2 -15 4 -15 2 0 6 7 10 15 3 8 1 15 -4 15 -6 0 -10
-7 -10 -15z"/>
<path d="M776 187 c3 -10 9 -15 12 -12 3 3 0 11 -7 18 -10 9 -11 8 -5 -6z"/>
<path d="M1695 190 c-3 -5 -1 -10 4 -10 6 0 11 5 11 10 0 6 -2 10 -4 10 -3 0
-8 -4 -11 -10z"/>
<path d="M1737 179 c4 -13 8 -18 11 -10 2 7 -1 18 -6 23 -8 8 -9 4 -5 -13z"/>
<path d="M2214 193 c4 -7 2 -13 -4 -13 -6 0 -8 -4 -5 -10 3 -5 10 -10 15 -10
10 0 7 27 -5 37 -4 4 -5 2 -1 -4z"/>
<path d="M1720 166 c0 -8 4 -17 9 -20 5 -4 7 3 4 14 -6 23 -13 26 -13 6z"/>
<path d="M1933 166 c-6 -8 -9 -17 -6 -20 12 -11 19 -6 20 14 2 23 2 23 -14 6z"/>
<path d="M2156 163 c-6 -14 -5 -15 5 -6 7 7 10 15 7 18 -3 3 -9 -2 -12 -12z"/>
<path d="M2831 163 c7 -12 15 -20 18 -17 3 2 -3 12 -13 22 -17 16 -18 16 -5
-5z"/>
<path d="M2865 170 c-3 -5 -1 -10 4 -10 6 0 11 5 11 10 0 6 -2 10 -4 10 -3 0
-8 -4 -11 -10z"/>
<path d="M3964 169 c-4 -7 -3 -9 4 -5 5 3 13 0 15 -6 4 -9 6 -10 6 -1 1 17
-16 25 -25 12z"/>
<path d="M3921 163 c-1 -17 16 -25 25 -12 4 7 3 9 -4 5 -5 -3 -13 0 -15 6 -4
9 -6 10 -6 1z"/>
<path d="M756 145 c-9 -26 -7 -32 5 -12 6 10 9 21 6 23 -2 3 -7 -2 -11 -11z"/>
<path d="M1759 158 c-5 -18 -6 -38 -1 -34 7 8 12 36 6 36 -2 0 -4 -1 -5 -2z"/>
<path d="M2193 145 c0 -8 4 -12 9 -9 5 3 6 10 3 15 -9 13 -12 11 -12 -6z"/>
<path d="M2356 143 c-6 -14 -5 -15 5 -6 7 7 10 15 7 18 -3 3 -9 -2 -12 -12z"/>
<path d="M2807 149 c7 -7 15 -10 18 -7 3 3 -2 9 -12 12 -14 6 -15 5 -6 -5z"/>
<path d="M3895 150 c3 -5 8 -10 11 -10 2 0 4 5 4 10 0 6 -5 10 -11 10 -5 0 -7
-4 -4 -10z"/>
<path d="M2170 140 c0 -5 -5 -9 -11 -7 -6 1 -14 -5 -16 -13 -4 -12 -3 -12 5
-2 5 8 13 13 18 12 5 -1 10 3 12 9 2 6 1 11 -2 11 -3 0 -6 -4 -6 -10z"/>
<path d="M2750 140 c-9 -6 -10 -10 -3 -10 6 0 15 5 18 10 8 12 4 12 -15 0z"/>
<path d="M2970 141 c0 -7 -4 -9 -10 -6 -5 3 -10 1 -10 -4 0 -6 4 -11 9 -11 13
0 25 20 17 27 -3 4 -6 1 -6 -6z"/>
<path d="M75 130 c3 -5 8 -10 11 -10 2 0 4 5 4 10 0 6 -5 10 -11 10 -5 0 -7
-4 -4 -10z"/>
<path d="M1833 125 c0 -8 4 -12 9 -9 5 3 6 10 3 15 -9 13 -12 11 -12 -6z"/>
<path d="M2384 132 c4 -3 14 -7 22 -8 9 -1 13 0 10 4 -4 3 -14 7 -22 8 -9 1
-13 0 -10 -4z"/>
<path d="M3015 130 c-3 -5 -1 -10 4 -10 6 0 11 5 11 10 0 6 -2 10 -4 10 -3 0
-8 -4 -11 -10z"/>
<path d="M3867 133 c-3 -5 6 -9 20 -10 19 -1 22 1 12 8 -17 11 -26 11 -32 2z"/>
<path d="M3958 133 c7 -3 16 -2 19 1 4 3 -2 6 -13 5 -11 0 -14 -3 -6 -6z"/>
<path d="M30 119 c0 -5 -5 -7 -12 -3 -7 4 -8 3 -4 -4 4 -6 13 -9 21 -6 8 4 12
10 9 15 -7 12 -14 11 -14 -2z"/>
<path d="M670 120 c8 -5 20 -10 25 -10 6 0 3 5 -5 10 -8 5 -19 10 -25 10 -5 0
-3 -5 5 -10z"/>
<path d="M1070 119 c-12 -8 -10 -9 9 -4 17 5 22 4 16 -5 -5 -9 -4 -11 4 -6 6
4 9 12 6 17 -8 12 -16 11 -35 -2z"/>
<path d="M2112 121 c-11 -7 -11 -9 0 -14 9 -3 15 1 15 9 0 8 -1 14 -1 14 -1 0
-7 -4 -14 -9z"/>
<path d="M2476 115 c-9 -26 -7 -32 5 -12 6 10 9 21 6 23 -2 3 -7 -2 -11 -11z"/>
<path d="M3590 119 c0 -5 5 -7 10 -4 6 3 10 8 10 11 0 2 -4 4 -10 4 -5 0 -10
-5 -10 -11z"/>
<path d="M3832 118 c2 -6 10 -13 16 -14 7 -1 8 0 2 3 -5 2 -8 9 -4 14 3 5 0 9
-6 9 -7 0 -10 -5 -8 -12z"/>
<path d="M320 100 c6 -11 13 -20 16 -20 2 0 0 9 -6 20 -6 11 -13 20 -16 20 -2
0 0 -9 6 -20z"/>
<path d="M855 110 c3 -5 2 -10 -3 -10 -6 0 -13 -8 -16 -17 -6 -15 -5 -15 13 1
18 16 20 36 5 36 -3 0 -2 -4 1 -10z"/>
<path d="M1164 105 c-3 -8 -4 -20 -1 -27 3 -7 6 -3 6 10 1 15 5 21 13 16 7 -4
8 -3 4 4 -10 16 -15 15 -22 -3z"/>
<path d="M1853 107 c-3 -6 -1 -7 5 -3 7 4 12 3 12 -3 0 -5 -6 -12 -12 -14 -10
-4 -10 -6 -1 -6 7 -1 17 7 22 17 8 14 6 19 -5 19 -8 0 -18 -5 -21 -10z"/>
<path d="M2176 111 c-3 -5 1 -14 9 -21 10 -9 15 -9 15 -1 0 6 -5 11 -11 11 -5
0 -7 5 -4 10 3 6 4 10 1 10 -3 0 -7 -4 -10 -9z"/>
<path d="M2376 106 c6 -15 4 -17 -6 -11 -9 6 -11 4 -5 -4 5 -9 10 -10 18 -2 8
8 7 14 -2 24 -10 10 -11 8 -5 -7z"/>
<path d="M2534 113 c4 -4 16 -8 28 -10 28 -4 18 6 -12 12 -12 2 -20 1 -16 -2z"/>
<path d="M2826 112 c-3 -5 1 -9 9 -9 8 0 12 4 9 9 -3 4 -7 8 -9 8 -2 0 -6 -4
-9 -8z"/>
<path d="M2975 111 c-3 -5 -2 -12 3 -15 5 -3 9 1 9 9 0 17 -3 19 -12 6z"/>
<path d="M3196 112 c-2 -4 2 -16 10 -27 8 -10 14 -14 14 -8 0 7 -5 15 -10 18
-6 4 -8 11 -5 16 4 5 4 9 1 9 -3 0 -7 -3 -10 -8z"/>
<path d="M3225 110 c-3 -6 1 -7 9 -4 18 7 21 14 7 14 -6 0 -13 -4 -16 -10z"/>
<path d="M3693 105 c-3 -9 -3 -18 -1 -21 3 -3 8 4 11 16 6 23 -1 27 -10 5z"/>
<path d="M3910 110 c-8 -5 -10 -10 -5 -10 6 0 17 5 25 10 8 5 11 10 5 10 -5 0
-17 -5 -25 -10z"/>
<path d="M3956 108 c3 -5 10 -6 15 -3 13 9 11 12 -6 12 -8 0 -12 -4 -9 -9z"/>
<path d="M102 94 c-7 -8 -8 -14 -3 -14 10 0 25 19 20 25 -2 1 -10 -3 -17 -11z"/>
<path d="M140 101 c0 -6 4 -13 10 -16 6 -3 7 1 4 9 -7 18 -14 21 -14 7z"/>
<path d="M466 94 c-6 -15 -4 -15 11 -3 10 7 20 15 22 16 2 2 -3 3 -11 3 -9 0
-19 -7 -22 -16z"/>
<path d="M748 103 c6 -2 9 -10 6 -15 -4 -7 -2 -8 5 -4 13 9 5 26 -12 25 -9 0
-8 -2 1 -6z"/>
<path d="M946 94 c-6 -15 -4 -15 11 -3 10 7 20 15 22 16 2 2 -3 3 -11 3 -9 0
-19 -7 -22 -16z"/>
<path d="M1110 95 c-7 -9 -10 -18 -6 -22 3 -3 6 -1 6 6 0 7 4 10 8 7 5 -3 9 1
9 9 0 19 -2 19 -17 0z"/>
<path d="M1795 100 c-3 -6 1 -7 9 -4 18 7 21 14 7 14 -6 0 -13 -4 -16 -10z"/>
<path d="M2412 90 c0 -14 2 -19 5 -12 2 6 2 18 0 25 -3 6 -5 1 -5 -13z"/>
<path d="M2500 106 c0 -2 7 -7 16 -10 8 -3 12 -2 9 4 -6 10 -25 14 -25 6z"/>
<path d="M3001 94 c0 -11 3 -14 6 -6 3 7 2 16 -1 19 -3 4 -6 -2 -5 -13z"/>
<path d="M3153 96 c0 -7 6 -13 14 -13 7 0 13 4 13 8 0 4 -6 9 -13 12 -8 3 -14
0 -14 -7z"/>
<path d="M3518 103 c7 -3 16 -2 19 1 4 3 -2 6 -13 5 -11 0 -14 -3 -6 -6z"/>
<path d="M3792 96 c7 -8 15 -12 17 -11 5 6 -10 25 -20 25 -5 0 -4 -6 3 -14z"/>
<path d="M270 92 c0 -4 9 -8 20 -9 11 -1 20 2 20 5 0 4 -9 8 -20 9 -11 1 -20
-2 -20 -5z"/>
<path d="M400 91 c0 -5 7 -12 16 -15 14 -5 15 -4 4 9 -14 17 -20 19 -20 6z"/>
<path d="M635 90 c3 -5 8 -10 11 -10 2 0 4 5 4 10 0 6 -5 10 -11 10 -5 0 -7
-4 -4 -10z"/>
<path d="M686 88 c3 -4 9 -8 15 -8 5 0 9 4 9 8 0 5 -7 9 -15 9 -8 0 -12 -4 -9
-9z"/>
<path d="M910 95 c0 -5 5 -17 10 -25 5 -8 10 -10 10 -5 0 6 -5 17 -10 25 -5 8
-10 11 -10 5z"/>
<path d="M2051 97 c2 -1 13 -9 24 -17 19 -14 19 -14 6 3 -7 9 -18 17 -24 17
-6 0 -8 -1 -6 -3z"/>
<path d="M2090 96 c0 -2 7 -7 16 -10 8 -3 12 -2 9 4 -6 10 -25 14 -25 6z"/>
<path d="M2673 84 c0 -7 7 -10 15 -6 11 4 13 1 7 -9 -5 -8 -4 -11 0 -6 16 14
13 33 -5 33 -9 0 -17 -6 -17 -12z"/>
<path d="M3370 89 c0 -5 5 -7 10 -4 6 3 10 8 10 11 0 2 -4 4 -10 4 -5 0 -10
-5 -10 -11z"/>
<path d="M3414 89 c-3 -6 -2 -15 3 -20 5 -5 9 -1 9 11 0 23 -2 24 -12 9z"/>
<path d="M3942 86 c7 -8 15 -12 17 -11 5 6 -10 25 -20 25 -5 0 -4 -6 3 -14z"/>
<path d="M608 83 c6 -2 9 -10 6 -15 -4 -7 -2 -8 5 -4 13 9 5 26 -12 25 -9 0
-8 -2 1 -6z"/>
<path d="M3508 83 c6 -2 9 -10 6 -15 -4 -7 -2 -8 5 -4 13 9 5 26 -12 25 -9 0
-8 -2 1 -6z"/>
<path d="M5 69 c-4 -6 -5 -12 -2 -15 2 -3 7 2 10 11 7 17 1 20 -8 4z"/>
<path d="M353 58 c-2 -18 0 -20 7 -8 12 18 13 30 2 30 -4 0 -9 -10 -9 -22z"/>
<path d="M655 71 c-9 -15 13 -23 32 -11 15 9 14 10 -6 4 -16 -4 -21 -3 -17 5
4 6 5 11 2 11 -3 0 -7 -4 -11 -9z"/>
<path d="M720 76 c0 -2 7 -7 16 -10 8 -3 12 -2 9 4 -6 10 -25 14 -25 6z"/>
<path d="M894 72 c3 -6 -2 -13 -11 -15 -16 -4 -16 -5 -1 -6 21 -1 32 15 17 25
-7 4 -9 3 -5 -4z"/>
<path d="M1758 73 c7 -3 16 -2 19 1 4 3 -2 6 -13 5 -11 0 -14 -3 -6 -6z"/>
<path d="M1802 71 c-10 -6 -10 -10 2 -20 11 -9 16 -9 22 0 5 8 3 9 -6 4 -10
-6 -12 -4 -7 8 7 19 7 20 -11 8z"/>
<path d="M1837 69 c7 -7 15 -10 18 -7 3 3 -2 9 -12 12 -14 6 -15 5 -6 -5z"/>
<path d="M1910 69 c0 -5 5 -7 10 -4 6 3 10 8 10 11 0 2 -4 4 -10 4 -5 0 -10
-5 -10 -11z"/>
<path d="M2044 69 c-3 -6 -1 -16 5 -22 9 -9 10 -7 5 7 -6 15 -4 17 6 11 9 -5
11 -4 6 3 -9 15 -13 15 -22 1z"/>
<path d="M2150 69 c0 -5 5 -7 10 -4 6 3 10 8 10 11 0 2 -4 4 -10 4 -5 0 -10
-5 -10 -11z"/>
<path d="M2563 73 c9 -2 14 -9 11 -15 -4 -7 -2 -8 5 -4 15 10 4 26 -17 25 -15
-1 -15 -2 1 -6z"/>
<path d="M2716 64 c-3 -9 -2 -22 2 -31 6 -10 9 -5 9 16 0 35 -2 38 -11 15z"/>
<path d="M3315 70 c-3 -6 1 -7 9 -4 18 7 21 14 7 14 -6 0 -13 -4 -16 -10z"/>
<path d="M3470 72 c0 -12 22 -32 35 -32 5 0 2 5 -8 11 -9 6 -15 14 -12 20 4 5
1 9 -4 9 -6 0 -11 -4 -11 -8z"/>
<path d="M3548 73 c6 -2 18 -2 25 0 6 3 1 5 -13 5 -14 0 -19 -2 -12 -5z"/>
<path d="M3650 69 c0 -5 5 -7 10 -4 6 3 10 8 10 11 0 2 -4 4 -10 4 -5 0 -10
-5 -10 -11z"/>
<path d="M3792 49 c6 -16 12 -28 14 -26 5 5 -13 57 -20 57 -3 0 0 -14 6 -31z"/>
<path d="M3855 69 c-6 -8 -4 -10 5 -4 9 5 10 1 6 -16 -6 -21 -6 -22 5 -6 7 13
8 22 1 29 -6 6 -12 6 -17 -3z"/>
<path d="M850 56 c0 -8 4 -17 9 -20 5 -4 7 3 4 14 -6 23 -13 26 -13 6z"/>
<path d="M2100 62 c0 -6 5 -14 10 -17 6 -4 7 -11 4 -17 -4 -7 -2 -8 5 -4 9 6
9 12 -1 24 -7 10 -14 19 -15 21 -2 2 -3 -1 -3 -7z"/>
<path d="M2439 58 c15 -21 31 -23 31 -6 0 6 -3 8 -7 5 -3 -4 -13 -1 -22 6 -14
11 -14 10 -2 -5z"/>
<path d="M2750 66 c0 -2 7 -7 16 -10 8 -3 12 -2 9 4 -6 10 -25 14 -25 6z"/>
<path d="M3691 63 c-1 -18 13 -23 29 -11 12 8 12 9 -2 5 -9 -3 -19 -1 -22 6
-3 9 -5 9 -5 0z"/>
<path d="M3827 57 c-3 -8 1 -14 8 -14 7 0 11 6 8 14 -3 7 -6 13 -8 13 -2 0 -5
-6 -8 -13z"/>
<path d="M3914 62 c3 -5 0 -13 -6 -15 -9 -4 -10 -6 -1 -6 17 -1 25 16 12 25
-7 4 -9 3 -5 -4z"/>
<path d="M30 50 c0 -5 5 -10 11 -10 5 0 7 5 4 10 -3 6 -8 10 -11 10 -2 0 -4
-4 -4 -10z"/>
<path d="M261 44 c0 -11 3 -14 6 -6 3 7 2 16 -1 19 -3 4 -6 -2 -5 -13z"/>
<path d="M440 50 c8 -5 20 -10 25 -10 6 0 3 5 -5 10 -8 5 -19 10 -25 10 -5 0
-3 -5 5 -10z"/>
<path d="M625 49 c-4 -6 -4 -13 -1 -16 3 -4 6 -1 6 6 0 7 5 9 12 5 7 -4 8 -3
4 4 -9 15 -13 15 -21 1z"/>
<path d="M700 50 c-8 -5 -10 -10 -5 -10 6 0 17 5 25 10 8 5 11 10 5 10 -5 0
-17 -5 -25 -10z"/>
<path d="M964 45 c-18 -15 -18 -15 0 -8 15 5 17 3 11 -8 -5 -8 -4 -11 0 -6 8
7 17 37 11 37 -1 0 -11 -7 -22 -15z"/>
<path d="M1065 50 c-3 -6 1 -7 9 -4 18 7 21 14 7 14 -6 0 -13 -4 -16 -10z"/>
<path d="M1136 44 c-5 -14 -4 -15 9 -4 17 14 19 20 6 20 -5 0 -12 -7 -15 -16z"/>
<path d="M1190 53 c0 -6 8 -17 18 -24 16 -13 16 -13 2 6 -8 11 -16 22 -17 24
-2 2 -3 0 -3 -6z"/>
<path d="M2655 50 c3 -5 8 -10 11 -10 2 0 4 5 4 10 0 6 -5 10 -11 10 -5 0 -7
-4 -4 -10z"/>
<path d="M2933 45 c0 -8 4 -12 9 -9 5 3 6 10 3 15 -9 13 -12 11 -12 -6z"/>
<path d="M3186 48 c3 -5 10 -6 15 -3 13 9 11 12 -6 12 -8 0 -12 -4 -9 -9z"/>
<path d="M3370 50 c0 -5 5 -10 11 -10 5 0 7 5 4 10 -3 6 -8 10 -11 10 -2 0 -4
-4 -4 -10z"/>
<path d="M3531 57 c2 -1 13 -9 24 -17 19 -14 19 -14 6 3 -7 9 -18 17 -24 17
-6 0 -8 -1 -6 -3z"/>
<path d="M3590 50 c-13 -8 -12 -10 3 -10 9 0 17 5 17 10 0 12 -1 12 -20 0z"/>
<path d="M3740 56 c0 -2 8 -10 18 -17 15 -13 16 -12 3 4 -13 16 -21 21 -21 13z"/>
<path d="M906 33 c-6 -14 -5 -15 5 -6 7 7 10 15 7 18 -3 3 -9 -2 -12 -12z"/>
<path d="M1995 41 c-3 -5 0 -13 6 -17 8 -5 9 -3 4 6 -6 10 -4 12 9 7 10 -4 15
-3 11 3 -8 13 -22 13 -30 1z"/>
<path d="M3027 37 c-3 -8 1 -14 9 -14 16 0 19 13 5 21 -5 3 -11 0 -14 -7z"/>
<path d="M299 38 c-7 -25 -4 -34 13 -34 17 0 17 2 4 12 -9 6 -13 14 -9 17 3 4
3 7 0 7 -4 0 -7 -1 -8 -2z"/>
<path d="M595 30 c3 -5 8 -10 11 -10 2 0 4 5 4 10 0 6 -5 10 -11 10 -5 0 -7
-4 -4 -10z"/>
<path d="M1160 20 c-6 -11 -8 -20 -6 -20 3 0 10 9 16 20 6 11 8 20 6 20 -3 0
-10 -9 -16 -20z"/>
<path d="M1830 29 c0 -5 5 -7 10 -4 6 3 10 8 10 11 0 2 -4 4 -10 4 -5 0 -10
-5 -10 -11z"/>
<path d="M1870 24 c8 -10 15 -20 16 -22 1 -2 4 1 7 5 3 5 -4 15 -16 23 -21 12
-21 12 -7 -6z"/>
<path d="M2070 31 c0 -6 4 -13 10 -16 6 -3 7 1 4 9 -7 18 -14 21 -14 7z"/>
<path d="M2573 19 c-2 -23 3 -25 10 -4 4 8 3 16 -1 19 -4 3 -9 -4 -9 -15z"/>
<path d="M2679 38 c-7 -24 -4 -34 11 -34 9 0 17 6 17 12 0 7 -7 10 -15 6 -10
-3 -13 -1 -8 6 4 7 5 12 2 12 -3 0 -6 -1 -7 -2z"/>
<path d="M3174 32 c3 -5 0 -13 -6 -15 -9 -4 -10 -6 -1 -6 17 -1 25 16 12 25
-7 4 -9 3 -5 -4z"/>
<path d="M3215 30 c3 -5 8 -10 11 -10 2 0 4 5 4 10 0 6 -5 10 -11 10 -5 0 -7
-4 -4 -10z"/>
<path d="M3246 32 c-3 -5 1 -9 9 -9 8 0 12 4 9 9 -3 4 -7 8 -9 8 -2 0 -6 -4
-9 -8z"/>
<path d="M3673 18 c-2 -18 0 -20 7 -8 12 18 13 30 2 30 -4 0 -9 -10 -9 -22z"/>
<path d="M3724 29 c-3 -6 -1 -16 5 -22 9 -9 10 -7 5 7 -6 15 -4 17 6 11 9 -5
11 -4 6 3 -9 15 -13 15 -22 1z"/>
<path d="M3876 23 c-6 -14 -5 -15 5 -6 7 7 10 15 7 18 -3 3 -9 -2 -12 -12z"/>
<path d="M468 23 c7 -3 16 -2 19 1 4 3 -2 6 -13 5 -11 0 -14 -3 -6 -6z"/>
<path d="M635 19 c-4 -6 -5 -12 -2 -15 2 -3 7 2 10 11 7 17 1 20 -8 4z"/>
<path d="M717 15 c3 -8 9 -12 14 -9 12 7 11 11 -5 17 -10 4 -13 1 -9 -8z"/>
<path d="M995 21 c-3 -5 -2 -12 3 -15 5 -3 9 1 9 9 0 17 -3 19 -12 6z"/>
<path d="M2050 21 c0 -7 -5 -9 -12 -5 -7 5 -8 3 -3 -5 5 -9 10 -10 18 -2 6 6
8 14 4 18 -4 3 -7 1 -7 -6z"/>
<path d="M2501 14 c0 -11 3 -14 6 -6 3 7 2 16 -1 19 -3 4 -6 -2 -5 -13z"/>
<path d="M2636 13 c-6 -14 -5 -15 5 -6 7 7 10 15 7 18 -3 3 -9 -2 -12 -12z"/>
<path d="M3478 23 c7 -3 16 -2 19 1 4 3 -2 6 -13 5 -11 0 -14 -3 -6 -6z"/>
<path d="M205 10 c-3 -6 1 -7 9 -4 18 7 21 14 7 14 -6 0 -13 -4 -16 -10z"/>
<path d="M410 9 c0 -5 5 -7 10 -4 6 3 10 8 10 11 0 2 -4 4 -10 4 -5 0 -10 -5
-10 -11z"/>
<path d="M850 15 c0 -7 30 -13 34 -7 3 4 -4 9 -15 9 -10 1 -19 0 -19 -2z"/>
<path d="M930 9 c0 -5 5 -7 10 -4 6 3 10 8 10 11 0 2 -4 4 -10 4 -5 0 -10 -5
-10 -11z"/>
<path d="M3415 10 c3 -5 8 -10 11 -10 2 0 4 5 4 10 0 6 -5 10 -11 10 -5 0 -7
-4 -4 -10z"/>
<path d="M3546 12 c-2 -4 4 -8 14 -8 10 0 16 4 14 8 -7 10 -21 10 -28 0z"/>
</g>
</svg>
