<?xml version="1.0" standalone="no"?>
<!DOCTYPE svg PUBLIC "-//W3C//DTD SVG 20010904//EN"
 "http://www.w3.org/TR/2001/REC-SVG-20010904/DTD/svg10.dtd">
<svg version="1.0" xmlns="http://www.w3.org/2000/svg"
 width="260.000000pt" height="260.000000pt" viewBox="0 0 260.000000 260.000000"
 preserveAspectRatio="xMidYMid meet">
<metadata>
Created by potrace 1.14, written by Peter Selinger 2001-2017
</metadata>
<g transform="translate(0.000000,260.000000) scale(0.100000,-0.100000)"
fill="#000000" stroke="none">
<path d="M835 2206 c-93 -31 -105 -37 -105 -47 0 -5 13 -9 29 -9 33 0 115 -32
126 -50 13 -21 -2 -21 -38 0 -40 24 -61 19 -51 -12 5 -18 3 -19 -24 -13 -23 5
-33 2 -44 -13 -7 -11 -22 -21 -33 -23 -13 -3 -21 -14 -23 -30 -3 -22 -7 -25
-27 -21 -38 7 -100 -7 -87 -20 17 -17 2 -39 -22 -32 -20 6 -20 5 4 -22 14 -15
34 -35 44 -44 31 -27 28 -65 -10 -123 -41 -61 -121 -222 -128 -257 -2 -14 -11
-52 -20 -85 -34 -129 -7 -395 54 -529 24 -53 24 -60 6 -75 -14 -12 -15 -58 -2
-80 5 -7 1 -20 -8 -30 -9 -10 -16 -22 -14 -27 3 -10 -21 -46 -64 -99 -16 -18
-28 -35 -28 -37 0 -7 34 -3 48 6 7 4 15 1 18 -8 7 -18 39 -22 49 -6 3 6 17 7
31 4 17 -4 31 0 45 12 15 13 22 15 27 6 6 -8 17 -6 40 8 l33 20 47 -38 c99
-81 205 -126 327 -138 43 -4 47 -3 31 8 -57 39 -76 61 -76 89 0 62 63 72 314
50 155 -14 218 -9 291 24 28 12 72 32 100 44 l49 22 28 -32 c16 -17 28 -36 28
-40 0 -5 5 -9 11 -9 6 0 29 -16 52 -35 22 -19 45 -35 51 -35 5 0 23 12 38 27
22 21 31 24 40 15 17 -17 25 -15 31 7 3 11 -2 29 -10 40 -13 19 -10 25 10 22
12 -2 8 13 -9 37 -15 22 -17 22 -29 5 -12 -16 -13 -14 -11 21 5 62 45 67 82
10 9 -13 19 -22 21 -20 3 3 -3 17 -14 33 -10 15 -26 44 -35 64 l-16 36 32 16
c31 14 40 28 134 220 2 4 -8 3 -22 -3 -31 -11 -81 -3 -97 16 -14 17 16 165 64
319 17 55 32 109 34 119 2 10 12 39 23 64 23 52 24 61 6 85 -12 16 -20 11 -87
-59 -85 -88 -168 -146 -232 -162 -40 -11 -46 -16 -62 -59 -15 -38 -46 -95 -72
-132 -2 -3 -11 5 -19 18 -27 38 -66 77 -61 60 7 -21 -31 -45 -47 -29 -8 8 -7
14 7 21 9 6 17 16 17 23 0 8 17 28 38 46 20 17 60 53 88 78 56 51 84 74 84 70
0 -2 -4 -18 -9 -36 -13 -42 -1 -42 96 3 56 26 95 54 154 112 87 84 91 97 60
168 l-17 39 30 31 c17 16 42 38 56 47 20 14 22 17 7 17 -13 1 -16 7 -12 24 14
53 -82 102 -116 60 -13 -15 -12 -15 8 -4 20 10 22 9 16 -6 -4 -10 -13 -24 -20
-32 -21 -20 -55 13 -47 46 4 14 2 23 -4 21 -5 -2 -34 23 -63 55 l-54 57 -110
16 c-60 9 -144 20 -185 24 -41 5 -136 21 -210 35 -74 14 -173 28 -220 31 -47
3 -107 12 -134 20 -71 20 -151 17 -231 -10z m-20 -166 c3 -6 -1 -7 -9 -4 -18
7 -21 14 -7 14 6 0 13 -4 16 -10z m831 -65 c27 -14 61 -36 74 -50 23 -24 23
-25 5 -45 -19 -21 -8 -29 12 -9 21 21 38 -12 37 -71 -2 -84 -6 -94 -39 -105
-16 -6 -29 -15 -28 -20 1 -6 -10 -10 -23 -10 -14 0 -24 6 -25 15 0 10 -2 11
-6 3 -7 -19 -23 -15 -23 5 0 35 -59 103 -108 125 -76 33 -153 29 -240 -15 -39
-19 -73 -33 -76 -31 -11 11 7 31 22 26 14 -4 14 -3 3 5 -10 7 -21 7 -33 1 -26
-14 -37 17 -12 35 15 12 16 16 5 30 -15 17 -35 11 -28 -9 10 -24 -57 -1 -70
25 -11 22 -10 25 9 28 11 2 24 -2 28 -9 6 -9 17 -5 41 15 47 40 127 78 184 87
91 14 234 2 291 -26z m-935 -42 c-8 -29 -29 -31 -23 -3 3 12 19 29 29 30 1 0
-2 -12 -6 -27z m-91 -43 c0 -5 -6 -10 -14 -10 -8 0 -18 5 -21 10 -3 6 3 10 14
10 12 0 21 -4 21 -10z m380 -180 c0 -5 -4 -10 -10 -10 -5 0 -10 -6 -10 -14 0
-14 -24 -29 -33 -19 -11 10 17 53 35 53 10 0 18 -4 18 -10z m156 -4 c3 -8 -4
-36 -16 -63 -13 -26 -24 -57 -25 -68 -1 -11 -8 -53 -15 -94 -6 -40 -10 -84 -7
-97 2 -13 -2 -29 -9 -35 -21 -17 -18 -25 30 -87 58 -76 73 -88 126 -103 62
-17 66 -23 40 -56 -19 -23 -21 -24 -16 -6 7 23 -12 43 -23 24 -5 -7 -17 -8
-41 -1 -25 7 -36 6 -41 -2 -12 -19 -81 22 -75 45 3 11 -2 17 -13 17 -9 0 -22
5 -27 10 -6 6 -22 12 -35 14 -37 5 -69 17 -69 26 0 5 7 43 15 86 13 68 13 98
2 83 -2 -2 -33 -62 -68 -134 -57 -118 -70 -137 -141 -204 -59 -55 -77 -79 -73
-92 5 -13 2 -17 -7 -14 -8 3 -30 -5 -49 -18 -60 -40 -59 -40 -43 0 9 21 24 49
34 63 9 14 85 163 169 332 108 218 156 305 166 302 8 -3 11 -13 8 -22 -5 -11
-2 -14 9 -9 9 3 26 -3 39 -14 30 -26 39 -24 39 9 0 26 41 98 64 114 18 13 46
9 52 -6z m518 -69 c8 -12 5 -21 -9 -37 l-19 -21 -8 22 c-17 46 12 75 36 36z
m64 -52 c2 -1 5 -13 7 -26 3 -18 -2 -27 -21 -36 -22 -10 -24 -10 -19 7 6 19
-20 36 -30 20 -4 -6 -14 -10 -23 -9 -11 0 -12 3 -4 6 6 2 12 10 12 17 0 22 24
37 50 31 14 -4 26 -8 28 -10z m20 -142 c-6 -7 -14 -10 -19 -7 -15 9 -10 20 10
20 15 0 17 -3 9 -13z m-64 -50 c-10 -7 -24 -11 -32 -8 -7 2 -16 -6 -22 -19 -8
-22 -37 -42 -47 -32 -6 5 18 48 35 61 7 5 29 10 49 11 33 1 34 0 17 -13z m-89
-83 c3 -5 -3 -10 -15 -10 -12 0 -18 5 -15 10 3 6 10 10 15 10 5 0 12 -4 15
-10z m-70 -177 c-12 -8 -23 -9 -28 -4 -15 15 1 30 24 24 21 -6 21 -7 4 -20z
m-145 1 c0 -3 -21 -28 -47 -56 -50 -53 -47 -54 23 -7 23 16 44 25 48 22 12
-13 6 -37 -16 -61 -23 -23 -23 -24 -4 -38 19 -14 19 -14 -5 -15 -120 -4 -140
-3 -148 10 -5 7 -14 10 -20 7 -6 -4 -11 -3 -11 3 0 5 5 13 11 17 8 5 7 9 -1
14 -22 14 -4 38 24 33 21 -4 34 4 70 41 29 30 50 44 61 40 8 -3 15 -8 15 -10z
m279 -10 c-7 -9 -39 -33 -70 -54 l-56 -39 0 39 c0 36 3 40 35 51 19 6 46 12
59 12 13 0 26 4 29 9 3 5 8 7 11 4 3 -3 0 -13 -8 -22z m-672 2 c-4 -10 4 -18
21 -25 l27 -9 -26 -1 c-27 -1 -45 21 -33 40 8 14 17 10 11 -5z m528 -37 c12
-19 -5 -23 -22 -6 -16 16 -16 17 -1 17 9 0 20 -5 23 -11z m-405 -54 c0 -9 -6
-12 -15 -9 -8 4 -15 10 -15 15 0 5 7 9 15 9 8 0 15 -7 15 -15z m-399 -36 c-17
-17 -31 -28 -31 -24 0 11 52 66 58 61 2 -3 -10 -19 -27 -37z m807 29 c-6 -18
-28 -21 -28 -4 0 9 7 16 16 16 9 0 14 -5 12 -12z m-43 -18 c-3 -5 -12 -10 -18
-10 -7 0 -6 4 3 10 19 12 23 12 15 0z m475 -280 c0 -5 -4 -10 -10 -10 -5 0
-10 -7 -10 -15 0 -8 -3 -15 -7 -16 -5 0 -24 -2 -43 -4 -33 -4 -34 -4 -16 10
11 8 24 15 29 15 4 0 15 7 23 15 18 17 34 20 34 5z"/>
<path d="M1090 1649 c0 -5 5 -7 10 -4 6 3 10 8 10 11 0 2 -4 4 -10 4 -5 0 -10
-5 -10 -11z"/>
<path d="M1063 1553 c-7 -3 -13 -13 -13 -24 0 -20 -27 -52 -51 -62 -11 -4 -11
-6 1 -6 21 -1 60 34 60 53 0 8 7 19 16 24 18 10 7 22 -13 15z"/>
<path d="M970 1451 c0 -6 4 -13 10 -16 6 -3 7 1 4 9 -7 18 -14 21 -14 7z"/>
<path d="M1055 1360 c-3 -5 -1 -10 4 -10 6 0 11 5 11 10 0 6 -2 10 -4 10 -3 0
-8 -4 -11 -10z"/>
</g>
</svg>
